<svg xmlns="http://www.w3.org/2000/svg" width="135" height="125" viewBox="0 0 135 125">
    <g fill="none" fill-rule="nonzero">
        <path fill="#F8CB00" d="M121.217 124.016H13.463c-7.358 0-13.323-5.965-13.323-13.323V61.326c0-1.45.596-2.834 1.647-3.831L58.886 3.37c4.74-4.493 12.168-4.493 16.908 0l54.44 51.605a13.797 13.797 0 0 1 4.306 10.013v45.705a13.323 13.323 0 0 1-13.323 13.323z"/>
        <path fill="#000" d="M.14 62.136h133.28v53.835a8.045 8.045 0 0 1-8.045 8.045H8.185a8.045 8.045 0 0 1-8.045-8.045V62.136z" opacity=".1"/>
        <rect width="99.12" height="99.12" x="17.64" y="19.716" fill="#00A8FF" rx="7.331"/>
        <path fill="#000" d="M116.76 64.362v54.474H17.64V64.362L67.2 88.316z" opacity=".1"/>
        <path fill="#F8CB00" d="M67.2 91.396L3.698 60.703A2.577 2.577 0 0 0 0 63.023v52.808a8.045 8.045 0 0 0 8.045 8.045h118.31a8.045 8.045 0 0 0 8.045-8.045V63.928a3.144 3.144 0 0 0-4.512-2.83L67.2 91.395z"/>
        <path fill="#F2F2F2" d="M26.18 28.816H53.9v3.92H26.18zM23.94 43.096h82.32v2.24H23.94zM23.94 50.656h82.32v2.24H23.94zM23.94 58.216h82.32v2.24H23.94z"/>
        <ellipse cx="21.7" cy="21.277" fill="#FFF" rx="11.48" ry="11.501"/>
        <path fill="#57B858" d="M21.7 7.816c-7.577 0-13.72 6.143-13.72 13.72 0 7.578 6.143 13.72 13.72 13.72 7.577 0 13.72-6.142 13.72-13.72-.022-7.568-6.152-13.698-13.72-13.72zm-2.817 21.035l-7.031-7.031 1.972-1.972 5.066 5.065 10.692-10.692 1.973 1.972-12.672 12.658z"/>
    </g>
</svg>
