<svg xmlns="http://www.w3.org/2000/svg" width="375" height="84" viewBox="0 0 375 84">
    <g fill="none" fill-rule="evenodd">
        <path fill="#FFF" fill-rule="nonzero" d="M13 0h103.664a62 62 0 0 1 43.231 17.558C164.31 21.853 173.512 24 187.5 24c14.14 0 23.48-2.194 28.021-6.582A62 62 0 0 1 258.607 0H362c7.18 0 13 5.82 13 13v71H0V13C0 5.82 5.82 0 13 0z"/>
        <g fill-rule="nonzero" stroke="#4B5184" stroke-linecap="round" stroke-linejoin="round" stroke-width="1.5" opacity=".2">
            <path d="M94 30v-8a4 4 0 0 1 4-4h13a4 4 0 0 1 4 4v8a4 4 0 0 1-4 4H98a4 4 0 0 1-4-4z"/>
            <path d="M114 19l-9 7-9-7"/>
        </g>
        <g fill-rule="nonzero" stroke="#4B5184" stroke-linecap="round" stroke-linejoin="round" stroke-width="1.5" opacity=".2" transform="translate(262 17)">
            <path d="M16 17a8 8 0 1 0-16 0"/>
            <circle cx="8" cy="4.5" r="4.5" transform="matrix(1 0 0 -1 0 9)"/>
        </g>
        <g fill-rule="nonzero" stroke="#4B5184" stroke-linecap="round" stroke-linejoin="round" stroke-width="1.5">
            <path d="M32 36.375h14a2 2 0 0 0 2-2v-9.897a2 2 0 0 0-.616-1.444l-7-6.708a2 2 0 0 0-2.768 0l-7 6.708A2 2 0 0 0 30 24.478v9.897a2 2 0 0 0 2 2z"/>
            <path d="M35.625 36.375v-6.75h6.75v6.75"/>
        </g>
        <g fill-rule="nonzero" stroke="#4B5184" stroke-linecap="round" stroke-linejoin="round" stroke-width="1.5" opacity=".2">
            <circle cx="4" cy="4" r="4" transform="matrix(1 0 0 -1 330.5 29.5)"/>
            <path d="M342.17 20.606l.08-.106a1.441 1.441 0 0 0-.134-1.884l-.732-.732a1.441 1.441 0 0 0-1.884-.134l-.106.08a1.809 1.809 0 0 1-1.894.17 2.286 2.286 0 0 1-1.22-1.596l-.03-.154a1.555 1.555 0 0 0-1.525-1.25h-.45c-.741 0-1.38.523-1.525 1.25l-.03.154A2.286 2.286 0 0 1 331.5 18a1.809 1.809 0 0 1-1.894-.17l-.106-.08a1.441 1.441 0 0 0-1.884.134l-.732.732a1.441 1.441 0 0 0-.134 1.884l.08.106c.41.548.476 1.281.17 1.894a2.286 2.286 0 0 1-1.596 1.22l-.154.03a1.555 1.555 0 0 0-1.25 1.525v.45c0 .741.523 1.38 1.25 1.525.78.156 1.428.695 1.723 1.434l.063.155c.288.721.18 1.54-.286 2.161a1.29 1.29 0 0 0 .226 1.78l.548.44c.575.459 1.387.472 1.976.03a1.667 1.667 0 0 1 2 0l.175.132c.534.4.913.971 1.075 1.618.147.588.675 1 1.28 1h.695c.741 0 1.38-.523 1.525-1.25l.03-.154A2.286 2.286 0 0 1 337.5 33a1.809 1.809 0 0 1 1.894.17l.106.08c.574.43 1.377.373 1.884-.134l.732-.732c.507-.507.564-1.31.134-1.884l-.08-.106A1.809 1.809 0 0 1 342 28.5a2.286 2.286 0 0 1 1.596-1.22l.154-.03a1.555 1.555 0 0 0 1.25-1.525v-.45c0-.741-.523-1.38-1.25-1.525l-.154-.03A2.286 2.286 0 0 1 342 22.5a1.809 1.809 0 0 1 .17-1.894z"/>
        </g>
    </g>
</svg>
