<svg xmlns="http://www.w3.org/2000/svg" width="56" height="56" viewBox="0 0 56 56">
    <g fill="none" fill-rule="evenodd">
        <circle cx="28" cy="28" r="28" fill="#0DACFF" fill-rule="nonzero"/>
        <path stroke="#FFF" stroke-linecap="round" stroke-width="2" d="M27.75 37a1.12 1.12 0 0 1-.754-.294 228.518 228.518 0 0 0-2.217-1.979l-.004-.003c-1.964-1.737-3.66-3.237-4.84-4.714C18.614 28.358 18 26.79 18 25.08c0-1.662.55-3.196 1.547-4.318a5.158 5.158 0 0 1 3.9-1.762c1.126 0 2.157.37 3.064 1.097.458.368.873.818 1.239 1.342.366-.524.78-.974 1.239-1.342.907-.728 1.938-1.097 3.064-1.097 1.506 0 2.89.626 3.9 1.762.998 1.122 1.547 2.656 1.547 4.318 0 1.711-.614 3.278-1.934 4.93-1.18 1.477-2.877 2.977-4.84 4.714-.672.593-1.433 1.266-2.222 1.982a1.12 1.12 0 0 1-.754.294z"/>
    </g>
</svg>
