<svg xmlns="http://www.w3.org/2000/svg" width="56" height="56" viewBox="0 0 56 56">
    <g fill="none" fill-rule="evenodd">
        <circle cx="28" cy="28" r="28" fill="#FFF" fill-rule="nonzero"/>
        <path fill="#00A8FF" fill-rule="nonzero" d="M27.8 40.776c-.364 0-.716-.132-.99-.372A296.678 296.678 0 0 0 23.9 37.9l-.005-.004c-2.58-2.198-4.806-4.096-6.356-5.965C15.807 29.84 15 27.859 15 25.694c0-2.104.721-4.045 2.03-5.465C18.357 18.792 20.175 18 22.153 18c1.477 0 2.83.467 4.022 1.388a8.23 8.23 0 0 1 1.626 1.699 8.23 8.23 0 0 1 1.626-1.699C30.618 18.468 31.971 18 33.45 18c1.977 0 3.795.792 5.12 2.229 1.31 1.42 2.031 3.361 2.031 5.465 0 2.165-.807 4.146-2.539 6.236-1.55 1.87-3.776 3.768-6.355 5.966-.881.75-1.88 1.602-2.917 2.508-.273.24-.625.372-.989.372zM22.152 19.5a5.4 5.4 0 0 0-4.019 1.745c-1.053 1.143-1.634 2.723-1.634 4.449 0 1.82.677 3.449 2.195 5.28 1.466 1.77 3.648 3.629 6.173 5.781l.005.004c.883.753 1.884 1.606 2.926 2.517 1.048-.913 2.05-1.768 2.935-2.521 2.526-2.153 4.707-4.011 6.174-5.781 1.517-1.831 2.194-3.46 2.194-5.28 0-1.726-.58-3.306-1.634-4.449a5.4 5.4 0 0 0-4.018-1.745c-1.138 0-2.183.361-3.105 1.075-.823.636-1.395 1.44-1.73 2.002a.94.94 0 0 1-.814.462.94.94 0 0 1-.813-.462c-.336-.563-.908-1.366-1.73-2.002-.923-.714-1.968-1.075-3.105-1.075z"/>
    </g>
</svg>
