<svg xmlns="http://www.w3.org/2000/svg" width="40" height="40" viewBox="0 0 40 40">
    <g fill="none" fill-rule="nonzero">
        <circle cx="20" cy="20" r="20" fill="#FFF"/>
        <path fill="#4B5184" stroke="#4B5184" stroke-width=".5" d="M24.026 18.272H13.128l2.292-2.568a.404.404 0 1 0-.604-.539l-2.58 2.893a.928.928 0 0 0 0 1.236l2.58 2.893a.403.403 0 0 0 .571.032.404.404 0 0 0 .033-.57l-2.292-2.569h10.898a3.17 3.17 0 0 1 3.166 3.166 3.17 3.17 0 0 1-3.166 3.165h-1.924a.404.404 0 0 0 0 .809h1.924A3.978 3.978 0 0 0 28 22.246a3.978 3.978 0 0 0-3.974-3.974z"/>
    </g>
</svg>
