<svg xmlns="http://www.w3.org/2000/svg" width="50" height="8" viewBox="0 0 50 8">
    <g fill="none" fill-rule="evenodd">
        <path fill="#F8CB00" d="M4 6L1.649 7.236l.449-2.618L.196 2.764l2.628-.382L4 0l1.176 2.382 2.628.382-1.902 1.854.45 2.618zM15 6l-2.351 1.236.449-2.618-1.902-1.854 2.628-.382L15 0l1.176 2.382 2.628.382-1.902 1.854.45 2.618zM25 6l-2.351 1.236.449-2.618-1.902-1.854 2.628-.382L25 0l1.176 2.382 2.628.382-1.902 1.854.45 2.618zM35 6l-2.351 1.236.449-2.618-1.902-1.854 2.628-.382L35 0l1.176 2.382 2.628.382-1.902 1.854.45 2.618z"/>
        <path fill="#D8D8D8" d="M46 6l-2.351 1.236.449-2.618-1.902-1.854 2.628-.382L46 0l1.176 2.382 2.628.382-1.902 1.854.45 2.618z"/>
    </g>
</svg>
