<svg xmlns="http://www.w3.org/2000/svg" width="25" height="25" viewBox="0 0 25 25">
    <g fill="none" fill-rule="evenodd" stroke="#DBDDE7" transform="translate(2 2)">
        <path stroke-linejoin="round" stroke-width="2" d="M19.036 5.873l.083-.111a1.51 1.51 0 0 0-.14-1.974l-.767-.767a1.51 1.51 0 0 0-1.974-.14l-.11.083c-.575.43-1.343.5-1.985.179a2.395 2.395 0 0 1-1.277-1.672l-.033-.161A1.629 1.629 0 0 0 11.236 0h-.472c-.776 0-1.445.548-1.597 1.31l-.033.16a2.395 2.395 0 0 1-1.277 1.673 1.895 1.895 0 0 1-1.984-.18l-.111-.082a1.51 1.51 0 0 0-1.974.14l-.767.767a1.51 1.51 0 0 0-.14 1.974l.083.11c.43.575.5 1.343.179 1.985A2.395 2.395 0 0 1 1.47 9.134l-.161.033C.548 9.319 0 9.987 0 10.764v.472c0 .776.548 1.445 1.31 1.597a2.465 2.465 0 0 1 1.805 1.502l.065.163a2.33 2.33 0 0 1-.299 2.264 1.351 1.351 0 0 0 .237 1.866l.574.459a1.69 1.69 0 0 0 2.07.032 1.746 1.746 0 0 1 2.095 0l.184.138c.559.419.956 1.018 1.126 1.695A1.383 1.383 0 0 0 10.508 22h.728c.776 0 1.445-.548 1.597-1.31l.033-.16a2.395 2.395 0 0 1 1.277-1.673 1.895 1.895 0 0 1 1.984.18l.111.082a1.51 1.51 0 0 0 1.974-.14l.767-.767a1.51 1.51 0 0 0 .14-1.974l-.083-.11a1.895 1.895 0 0 1-.179-1.985 2.395 2.395 0 0 1 1.672-1.277l.161-.033A1.629 1.629 0 0 0 22 11.236v-.472c0-.776-.548-1.445-1.31-1.597l-.16-.033a2.395 2.395 0 0 1-1.673-1.277 1.895 1.895 0 0 1 .18-1.984z"/>
        <circle cx="11" cy="11" r="3" stroke-linecap="round"/>
    </g>
</svg>
