<svg xmlns="http://www.w3.org/2000/svg" xmlns:xlink="http://www.w3.org/1999/xlink" width="194" height="24" viewBox="0 0 194 24">
    <defs>
        <path id="a" d="M0 .126h19.623v19.023H0z"/>
        <path id="c" d="M0 23.553h193.947V0H0z"/>
    </defs>
    <g fill="none" fill-rule="evenodd">
        <g transform="translate(0 1.233)">
            <mask id="b" fill="#fff">
                <use xlink:href="#a"/>
            </mask>
            <path fill="#00A8FF" d="M6.468 5.834a4.916 4.916 0 0 1 1.578-1.119 4.695 4.695 0 0 1 1.945-.406 4.977 4.977 0 0 1 2.758.839c.408.275.766.617 1.072 1.026.307.408.535.879.686 1.412l5.116.013a8.365 8.365 0 0 0-.76-2.345A8.545 8.545 0 0 0 15.92 1.93 11.127 11.127 0 0 0 14.008.919c-.662-.27-1.335-.47-2.019-.6A10.8 10.8 0 0 0 9.991.127c-1.385 0-2.684.246-3.896.739a9.977 9.977 0 0 0-3.17 2.032 9.692 9.692 0 0 0-2.14 3.017A8.844 8.844 0 0 0 0 9.624c0 1.314.262 2.551.786 3.71a9.64 9.64 0 0 0 2.138 3.03 10.065 10.065 0 0 0 3.17 2.039c1.213.497 2.512.746 3.897.746.977 0 1.985-.156 3.024-.466 1.04-.311 2.01-.775 2.911-1.392a9.324 9.324 0 0 0 2.345-2.325c.661-.932 1.107-2.016 1.338-3.25h-5.128a4.17 4.17 0 0 1-.687 1.418 4.417 4.417 0 0 1-1.065 1.013 4.712 4.712 0 0 1-1.312.613c-.471.137-.946.206-1.426.206a4.695 4.695 0 0 1-1.945-.406 4.913 4.913 0 0 1-1.578-1.12 5.32 5.32 0 0 1-1.066-1.691 5.614 5.614 0 0 1-.393-2.112 5.6 5.6 0 0 1 .393-2.118 5.34 5.34 0 0 1 1.066-1.685" mask="url(#b)"/>
        </g>
        <path fill="#00A8FF" d="M33.598 7.46c-.506-.604-1.157-1.068-1.951-1.392-.795-.324-1.752-.486-2.871-.486-.666 0-1.304.108-1.912.326a9.514 9.514 0 0 0-1.672.78l.027-5.516h-4.85v18.77h4.877v-7.207c0-.435.06-.839.18-1.212s.288-.697.506-.972c.217-.276.484-.49.799-.646a2.364 2.364 0 0 1 1.059-.234c.355 0 .677.04.966.12.288.08.537.227.746.44.208.213.37.51.486.893.115.381.173.874.173 1.478v7.34h4.903V12.51c0-1.057-.118-2.012-.353-2.864-.236-.853-.607-1.58-1.113-2.185M181.645 11.453l-2.499-5.392h-2.901v-.013h-5.502V2.265l-3.49.026-1.518 3.264-1.56 1.795.04 2.836h1.64v4.268c0 1.208.16 2.176.479 2.904.32.728.75 1.288 1.292 1.679.542.39 1.177.648 1.905.772a13.66 13.66 0 0 0 2.305.187h2.704l.04-3.877h-2.278c-.231 0-.442-.024-.633-.073a1.154 1.154 0 0 1-.5-.267 1.222 1.222 0 0 1-.326-.526c-.075-.222-.113-.506-.113-.853v-4.29h5.515v-.008l2.92 6.762-3.193 6.69h5.223l7.567-17.506-4.646.027-2.471 5.378zM44.355 6.075l-2.471 5.378-2.499-5.392H34.74l4.663 10.803-3.192 6.69h5.224L49 6.047zM59.872 1.385L56.342.147l-2.624 4.435h3.41zM76.772 10.657c-.582-.453-1.284-.83-2.105-1.132a25.29 25.29 0 0 0-2.777-.826c-.471-.098-.913-.204-1.326-.32a7.148 7.148 0 0 1-1.079-.386 2.353 2.353 0 0 1-.726-.493.916.916 0 0 1-.267-.653c0-.168.032-.328.094-.48a.968.968 0 0 1 .34-.406c.164-.12.39-.215.68-.286.287-.071.658-.106 1.111-.106.47 0 .85.05 1.14.153.288.102.517.235.685.4.169.164.282.348.34.552.058.204.087.409.087.613h5.035c0-.915-.149-1.739-.446-2.471a4.96 4.96 0 0 0-1.306-1.865c-.572-.51-1.283-.904-2.131-1.18-.848-.274-1.827-.412-2.937-.412-2.612 0-4.55.513-5.815 1.538-1.266 1.026-1.899 2.511-1.899 4.457 0 .595.102 1.119.307 1.571.204.454.475.846.812 1.18.338.332.717.617 1.14.852.421.235.85.438 1.285.606.435.169.86.309 1.272.42.413.11.77.215 1.073.313.666.213 1.256.389 1.771.526.515.138.948.284 1.3.44.35.155.614.342.792.56.177.217.266.517.266.898 0 .222-.042.427-.126.613a1.138 1.138 0 0 1-.433.48c-.205.133-.478.235-.82.306-.342.071-.77.107-1.285.107-1.04 0-1.807-.175-2.305-.527-.497-.35-.746-.5-.746-1.166H58.074c-.24.57-.593 1.007-1.06 1.313-.465.306-.992.46-1.578.46-.4 0-.777-.076-1.132-.227a2.728 2.728 0 0 1-.933-.652 3.12 3.12 0 0 1-.632-1.04 3.917 3.917 0 0 1-.233-1.398c0-.524.077-.99.233-1.4.155-.408.366-.754.632-1.038.267-.284.578-.502.933-.653a2.87 2.87 0 0 1 1.132-.226c.586 0 1.113.155 1.579.466.466.31.819.746 1.059 1.305l4.982-.013a7.405 7.405 0 0 0-.919-2.338 7.001 7.001 0 0 0-1.632-1.852 7.608 7.608 0 0 0-2.264-1.225c-.858-.298-1.801-.446-2.831-.446-1.164 0-2.225.197-3.184.592a7.514 7.514 0 0 0-2.465 1.612 7.194 7.194 0 0 0-1.585 2.365 7.386 7.386 0 0 0-.56 2.864c0 1.012.187 1.967.56 2.864.373.897.901 1.68 1.585 2.351a7.622 7.622 0 0 0 2.465 1.599c.959.395 2.02.593 3.184.593 1.03 0 1.976-.152 2.837-.453a7.715 7.715 0 0 0 2.278-1.24 7.042 7.042 0 0 0 1.639-1.858c.287-.472.51-.974.677-1.5.066.328.175.637.33 1.06.27.743.714 1.41 1.332 2.006.617.595 1.434 1.077 2.451 1.445 1.017.369 2.271.553 3.763.553 1.093 0 2.116-.122 3.07-.366.956-.244 1.788-.604 2.499-1.08a5.301 5.301 0 0 0 1.678-1.778c.409-.71.613-1.532.613-2.464 0-.96-.155-1.765-.466-2.418a4.57 4.57 0 0 0-1.339-1.659"/>
        <mask id="d" fill="#fff">
            <use xlink:href="#c"/>
        </mask>
        <path fill="#00A8FF" d="M79.151 19.942h4.916V6.048H79.15zM83.72.72a2.77 2.77 0 0 0-.899-.527A3.406 3.406 0 0 0 81.642 0c-.426 0-.815.065-1.166.193-.35.13-.65.304-.899.526a2.259 2.259 0 0 0-.773 1.719c0 .329.07.641.207.939.138.298.329.558.573.78.244.222.54.397.886.526.346.128.732.193 1.159.193.435 0 .83-.065 1.185-.193.356-.129.658-.302.906-.52.249-.218.44-.475.573-.773.133-.297.2-.615.2-.952A2.259 2.259 0 0 0 83.72.719M111.145 8.945a1.914 1.914 0 0 1-.42.647 1.872 1.872 0 0 1-.626.413c-.24.097-.493.146-.76.146h-2.81V6.008h2.824c.267 0 .517.053.753.16a1.973 1.973 0 0 1 1.039 1.106c.102.257.153.532.153.826 0 .31-.051.592-.153.845m4.316 2.452c.573-.928.86-2.027.86-3.297 0-.933-.167-1.783-.5-2.552a5.765 5.765 0 0 0-1.399-1.978 6.42 6.42 0 0 0-2.138-1.285c-.826-.307-1.732-.46-2.718-.46h-8.06v18.117h5.023v-5.608h1.678l2.825 5.608h5.741l-3.65-6.394a5.809 5.809 0 0 0 2.338-2.151" mask="url(#d)"/>
        <path fill="#00A8FF" d="M126.925 14.38a3.217 3.217 0 0 1-.612 1.053 2.63 2.63 0 0 1-.92.666 2.854 2.854 0 0 1-1.159.233 2.82 2.82 0 0 1-1.145-.233 2.757 2.757 0 0 1-.933-.666 3.186 3.186 0 0 1-.633-1.052 3.93 3.93 0 0 1-.233-1.392c0-.507.076-.966.227-1.38a3.08 3.08 0 0 1 .62-1.045c.261-.284.572-.504.932-.66.36-.155.743-.233 1.152-.233a2.774 2.774 0 0 1 2.078.9c.267.288.475.637.626 1.045.151.409.227.866.227 1.373 0 .515-.076.979-.227 1.392m2.958-6.615c-.684-.674-1.51-1.207-2.478-1.598-.968-.39-2.038-.586-3.21-.586-1.164 0-2.225.197-3.185.593a7.63 7.63 0 0 0-2.464 1.598 7.032 7.032 0 0 0-1.585 2.358 7.44 7.44 0 0 0-.56 2.87c0 1.013.189 1.97.567 2.872a7.153 7.153 0 0 0 1.585 2.358 7.47 7.47 0 0 0 2.451 1.592c.955.39 2.01.586 3.164.586 1.181 0 2.255-.194 3.224-.58.968-.386 1.796-.915 2.484-1.585a7.063 7.063 0 0 0 1.598-2.358 7.389 7.389 0 0 0 .567-2.884c0-1.013-.189-1.97-.567-2.871a7.189 7.189 0 0 0-1.591-2.365M143.192 14.38c-.16.414-.377.767-.653 1.06a2.79 2.79 0 0 1-.972.672 3.051 3.051 0 0 1-1.186.234c-.426 0-.823-.078-1.192-.234a2.846 2.846 0 0 1-.966-.666 3.049 3.049 0 0 1-.646-1.059 3.975 3.975 0 0 1-.233-1.398c0-.507.08-.964.24-1.373.16-.408.377-.757.653-1.045.275-.289.6-.51.972-.666a3.088 3.088 0 0 1 1.199-.234c.426 0 .824.078 1.192.234.369.155.688.375.96.66.27.283.483.632.639 1.045.155.413.233.872.233 1.379 0 .515-.08.979-.24 1.392m3.21-6.615a6.842 6.842 0 0 0-2.317-1.605c-.915-.395-1.954-.592-3.117-.592-.702 0-1.332.082-1.892.246a6.835 6.835 0 0 0-1.505.633V1.172h-4.876v18.77h4.143l.16-.746c.48.338 1.043.627 1.691.866.649.24 1.377.36 2.185.36 1.164 0 2.205-.195 3.124-.586.92-.39 1.7-.924 2.345-1.599a6.963 6.963 0 0 0 1.478-2.364 8.024 8.024 0 0 0 .514-2.871c0-1.013-.165-1.97-.493-2.871a6.875 6.875 0 0 0-1.44-2.365M159.06 14.38a3.213 3.213 0 0 1-.614 1.053c-.257.289-.564.511-.919.666a2.854 2.854 0 0 1-1.159.233 2.82 2.82 0 0 1-1.145-.233 2.759 2.759 0 0 1-.933-.666 3.186 3.186 0 0 1-.633-1.052 3.936 3.936 0 0 1-.233-1.392c0-.507.076-.966.227-1.38.15-.412.357-.76.62-1.045.261-.284.572-.504.932-.66.36-.155.743-.233 1.152-.233.408 0 .79.078 1.145.234.356.155.667.377.933.666.267.288.475.637.626 1.045.151.409.227.866.227 1.373 0 .515-.076.979-.227 1.392m2.958-6.615c-.684-.674-1.51-1.207-2.478-1.598-.968-.39-2.039-.586-3.21-.586-1.164 0-2.225.197-3.185.593a7.629 7.629 0 0 0-2.464 1.598 7.028 7.028 0 0 0-1.585 2.358 7.436 7.436 0 0 0-.56 2.87c0 1.013.189 1.97.566 2.872a7.16 7.16 0 0 0 1.586 2.358 7.472 7.472 0 0 0 2.45 1.592c.955.39 2.01.586 3.165.586 1.18 0 2.255-.194 3.223-.58.969-.386 1.797-.915 2.485-1.585a7.064 7.064 0 0 0 1.598-2.358 7.393 7.393 0 0 0 .567-2.884c0-1.013-.19-1.97-.567-2.871a7.19 7.19 0 0 0-1.591-2.365M192.914 19.95c-.298.302-.69.453-1.177.453-.487 0-.877-.151-1.172-.452-.295-.302-.442-.737-.442-1.306 0-.569.147-1.004.442-1.305.295-.302.685-.453 1.172-.453.487 0 .879.151 1.177.453.298.301.447.736.447 1.305s-.149 1.004-.447 1.306m.874-2.247a2.042 2.042 0 0 0-.447-.709 1.967 1.967 0 0 0-.694-.452 2.477 2.477 0 0 0-.91-.16 2.32 2.32 0 0 0-.863.16c-.268.106-.5.257-.7.452a2.073 2.073 0 0 0-.467.71c-.113.277-.17.59-.17.94s.053.665.16.946a1.905 1.905 0 0 0 1.141 1.162c.27.102.57.153.9.153.307 0 .597-.05.868-.154.27-.103.505-.251.704-.447.199-.195.354-.433.468-.714.112-.281.17-.596.17-.946s-.054-.663-.16-.94" mask="url(#d)"/>
        <path fill="#00A8FF" d="M192.03 18.403c-.045.052-.139.077-.283.077h-.35v-.534h.288c.158 0 .266.023.325.067a.227.227 0 0 1 .087.19.294.294 0 0 1-.067.2m.555.144a.776.776 0 0 0 .077-.375.824.824 0 0 0-.036-.241.45.45 0 0 0-.144-.211.814.814 0 0 0-.298-.15 1.754 1.754 0 0 0-.488-.056h-.843v2.18h.545v-.771h.39l.37.77h.617l-.462-.894a.702.702 0 0 0 .272-.252M90.158 11.854s.098-.384.362-.837c.013-.022.024-.044.038-.066.02-.034.044-.068.067-.102.06-.093.129-.185.204-.278l.09-.106c.03-.033.062-.066.094-.098a2.607 2.607 0 0 1 1.93-.802h.012c.251.002.48.033.692.086l.014.004a2.652 2.652 0 0 1 .566.218c.037.02.077.037.113.058.066.039.127.081.187.124.027.018.055.036.08.055.075.056.146.114.212.175l.008.008a2.893 2.893 0 0 1 .29.307 3.11 3.11 0 0 1 .271.373l.027.044c.279.453.39.837.39.837h-5.647zm8.477-4.087c-.689-.675-1.517-1.208-2.485-1.599-.968-.39-2.038-.586-3.21-.586-1.164 0-2.225.197-3.184.592a7.63 7.63 0 0 0-2.465 1.6 7.03 7.03 0 0 0-1.585 2.357 7.434 7.434 0 0 0-.56 2.871c0 1.012.19 1.967.567 2.864.377.897.908 1.68 1.592 2.351a7.634 7.634 0 0 0 2.458 1.599c.954.395 2.013.593 3.177.593 1.03 0 1.963-.147 2.797-.44a7.95 7.95 0 0 0 2.192-1.152 7.032 7.032 0 0 0 1.558-1.612c.414-.6.713-1.206.9-1.819h-5.29c-.177.311-.445.578-.805.8-.36.222-.802.333-1.326.333a2.62 2.62 0 0 1-1.685-.593c-.493-.395-.846-.935-1.059-1.619h10.43c.036-.177.07-.36.101-.546.03-.186.047-.44.047-.759 0-1.013-.19-1.97-.567-2.87a7.136 7.136 0 0 0-1.598-2.365z" mask="url(#d)"/>
    </g>
</svg>
