<svg xmlns="http://www.w3.org/2000/svg" width="589" height="444" viewBox="0 0 589 444">
    <defs>
        <linearGradient id="a" x1="50.001%" x2="50.001%" y1="100.019%" y2="-.003%">
            <stop offset="0%" stop-color="gray" stop-opacity=".25"/>
            <stop offset="54%" stop-color="gray" stop-opacity=".12"/>
            <stop offset="100%" stop-color="gray" stop-opacity=".1"/>
        </linearGradient>
        <linearGradient id="b" x1="49.98%" x2="49.98%" y1="99.983%" y2=".001%">
            <stop offset="0%" stop-color="gray" stop-opacity=".25"/>
            <stop offset="54%" stop-color="gray" stop-opacity=".12"/>
            <stop offset="100%" stop-color="gray" stop-opacity=".1"/>
        </linearGradient>
    </defs>
    <g fill="none" fill-rule="nonzero">
        <path fill="#00A8FF" d="M362.628 61.09c-25.23 21.391-57.957 20.007-86.635 8.875-28.678-11.132-55.022-30.944-82.964-45.03-23.425-11.807-48.006-19.56-72.887-23.01C84.53-3.01 44.76 3.015 19.95 37.583-7.68 76.095-5.558 145.557 24.315 180.888c15.203 17.981 35.11 26.808 52.468 40.866 17.359 14.058 33.436 37.358 31.957 64.46-1.37 25.065-17.282 44.338-33.752 56.418-12.727 9.334-28.4 19.529-29.933 38.867-1.483 18.706 11.697 33.369 24.282 41.705 41.056 27.196 91.648 26.934 132.563-.686 14.587-9.857 27.985-22.967 43.287-30.64 40.178-20.16 84.453.132 126.998 7.558 36.005 6.283 72.932 3.024 108.014-9.524 21.069-7.536 42.219-19.071 57.019-40.518 10.676-15.475 17.326-35.063 23.566-54.407a2452.928 2452.928 0 0 0 19.197-62.313c3.683-12.56 7.31-25.36 8.265-38.79 1.724-24.346-5.542-48.414-15.438-68.956-23.496-48.784-63.068-83.084-105.925-91.797-42.856-8.713-88.195 8.304-121.434 45.542" opacity=".1"/>
        <ellipse cx="268.5" cy="290.918" fill="#00A8FF" opacity=".1" rx="124" ry="5.5"/>
        <path fill="#FFF" d="M263.508 266.418c-61.763 0-112.008-50.241-112.008-112 0-61.758 50.229-112 112.008-112 61.78 0 111.992 50.247 111.992 112s-50.25 112-111.992 112zm0-222.911c-61.164 0-110.92 49.757-110.92 110.911 0 61.155 49.74 110.912 110.92 110.912s110.92-49.757 110.92-110.912c0-61.154-49.777-110.911-110.92-110.911z"/>
        <path fill="#FFF" d="M263.503 241.418c-47.969 0-87.003-39.03-87.003-87s39.034-87 87.003-87c47.968 0 86.997 39.03 86.997 87s-39.029 87-86.997 87zm0-172.91c-47.375 0-85.913 38.54-85.913 85.91s38.538 85.91 85.913 85.91c47.374 0 85.907-38.54 85.907-85.91s-38.555-85.91-85.907-85.91z"/>
        <path fill="#FFF" d="M263.5 214.418c-33.137 0-60-26.863-60-60s26.863-60 60-60 60 26.863 60 60c-.04 33.121-26.88 59.961-60 60zm0-118.909c-32.535 0-58.91 26.375-58.91 58.91 0 32.534 26.375 58.908 58.91 58.908s58.91-26.374 58.91-58.909c-.04-32.518-26.392-58.87-58.91-58.909z"/>
        <ellipse cx="535.5" cy="219.918" fill="#6C63FF" opacity=".1" rx="8" ry="2.5"/>
        <g fill="#000" opacity=".1">
            <path d="M178.788 146.813H38.857c-4.034.012-7.301 3.29-7.313 7.336v88.697c.012 4.047 3.279 7.325 7.313 7.337h109.772s2.843 15.144-6.5 16.775c0 0 20.925 1.506 17.268-16.775h19.391c4.034-.012 7.302-3.29 7.314-7.337V154.15c-.012-4.047-3.28-7.324-7.314-7.336z"/>
            <g opacity=".2" transform="translate(51.694 169.961)">
                <rect width="113.357" height="6.931" x=".448" y=".394" rx="3.466"/>
                <rect width="113.357" height="6.931" x=".448" y="31.372" rx="3.466"/>
                <rect width="95.063" height="6.931" x=".448" y="46.856" rx="3.466"/>
                <rect width="49.152" height="6.931" x=".448" y="15.883" rx="3.466"/>
            </g>
        </g>
        <path fill="#FFF" d="M180.218 146.418H40.787c-4.02.012-7.275 3.285-7.287 7.327v88.57c.012 4.042 3.267 7.315 7.287 7.327h109.375s2.839 15.122-6.476 16.746c0 0 20.85 1.504 17.206-16.746h19.326c4.02-.012 7.273-3.286 7.282-7.326v-88.571c-.009-4.04-3.263-7.315-7.282-7.327z"/>
        <g fill="#00A8FF" opacity=".2" transform="translate(53.5 169.418)">
            <rect width="112.837" height="6.905" x=".033" y=".327" rx="3.453"/>
            <rect width="112.837" height="6.905" x=".033" y="31.189" rx="3.453"/>
            <rect width="94.627" height="6.905" x=".033" y="46.62" rx="3.453"/>
            <rect width="48.927" height="6.905" x=".033" y="15.758" rx="3.453"/>
        </g>
        <path fill="#000" d="M68.29 161.414c-.109-.38-.233-.76-.363-1.134.108.38.232.76.362 1.134z" opacity=".1"/>
        <path fill="#F8CB00" d="M285.083 416.445s-20.84-1.25-18.381 13.248c0 0-.488 2.562 1.851 3.725 0 0 .038-1.087 2.136-.707a9.658 9.658 0 0 0 2.262.11 4.745 4.745 0 0 0 2.772-1.137s5.855-2.404 8.133-11.91c0 0 1.687-2.072 1.643-2.605l-3.516 1.49s1.2 2.518.252 4.612c0 0-.11-4.52-.789-4.41-.137 0-1.824.87-1.824.87s2.065 4.388.504 7.575c0 0 .592-5.406-1.15-7.255l-2.476 1.43s2.416 4.536.778 8.234c0 0 .422-5.672-1.298-7.88l-2.246 1.735s2.273 4.464.888 7.532c0 0-.181-6.602-1.375-7.07 0 0-1.961 1.713-2.257 2.42 0 0 1.55 3.263.586 4.954 0 0-.591-4.4-1.095-4.416 0 0-1.955 2.915-2.158 4.895a10.542 10.542 0 0 1 1.681-5.194 5.88 5.88 0 0 0-2.99 1.54s.301-2.062 3.472-2.241c0 0 1.644-2.208 2.049-2.344 0 0-3.155-.261-5.067.582 0 0 1.682-1.947 5.647-1.088l2.191-1.795s-4.151-.543-5.915.06c0 0 2.026-1.724 6.512-.468l2.41-1.435s-3.538-.756-5.647-.484c0 0 2.224-1.191 6.354.103l1.725-.772s-2.596-.506-3.352-.582c-.756-.076-.8-.288-.8-.288a9.02 9.02 0 0 1 4.87.544s3.68-1.35 3.62-1.578z"/>
        <ellipse cx="271" cy="434.918" fill="#00A8FF" opacity=".1" rx="14.5" ry="2.5"/>
        <path fill="#F8CB00" d="M448.083 399.445s-20.818-1.245-18.385 13.25c0 0-.488 2.56 1.851 3.723 0 0 .039-1.087 2.137-.712.749.125 1.51.161 2.268.109a4.697 4.697 0 0 0 2.766-1.136s5.862-2.398 8.136-11.901c0 0 1.687-2.077 1.643-2.61l-3.539 1.522s1.2 2.518.258 4.61c0 0-.115-4.523-.79-4.414-.136 0-1.829.87-1.829.87s2.065 4.387.51 7.579c0 0 .591-5.404-1.156-7.258l-2.477 1.435s2.416 4.529.778 8.226c0 0 .422-5.67-1.298-7.878l-2.24 1.723s2.267 4.47.881 7.536c0 0-.18-6.606-1.37-7.1 0 0-1.96 1.717-2.262 2.424 0 0 1.556 3.262.592 4.947 0 0-.592-4.392-1.096-4.414 0 0-1.955 2.914-2.158 4.893a10.519 10.519 0 0 1 1.687-5.192 5.91 5.91 0 0 0-2.996 1.538s.306-2.055 3.478-2.24c0 0 1.644-2.207 2.05-2.343 0 0-3.156-.26-5.074.582 0 0 1.688-1.946 5.648-1.06l2.192-1.794s-4.158-.544-5.917.06c0 0 2.027-1.718 6.514-.468l2.41-1.43s-3.544-.76-5.653-.484c0 0 2.224-1.19 6.36.098l1.726-.766s-2.597-.506-3.359-.587c-.761-.082-.8-.289-.8-.289a9.043 9.043 0 0 1 4.876.544s3.704-1.365 3.638-1.593z"/>
        <ellipse cx="434" cy="416.918" fill="#00A8FF" opacity=".1" rx="14.5" ry="2.5"/>
        <ellipse cx="464" cy="238.418" fill="#00A8FF" opacity=".1" rx="42.5" ry="7"/>
        <path fill="url(#a)" d="M512.734 101.821c1.723-5.811 0-11.622 0-11.622v-5.467s1.968-10.72-6.794-17.598l-5.815-5.155s-3.262-2.81-4.202-2.99c-.18-.04-.36-.067-.543-.082l-.174-.099a17.654 17.654 0 0 1-1.272-2.695 2.475 2.475 0 0 0 2.07-.71c.21-.243.376-.52.49-.82.337-.76.391-1.679.68-2.488a5.812 5.812 0 0 1 1.086-1.787c-.06.098-.12.19-.174.29.821-1.028 1.897-1.914 2.664-3.002.154-.214.296-.436.424-.667l-.115.137c1.087-1.728 1.397-3.827 1.707-5.839a5.3 5.3 0 0 0 .033-2.088 6.98 6.98 0 0 0-.582-1.323c-1.26-2.624-1.234-5.915-3.261-8.009-1.516-1.569-3.805-2.05-5.979-2.318-2.174-.268-4.44-.42-6.3-1.563a6.81 6.81 0 0 0-1.706-.946 1.404 1.404 0 0 0-1.68.629 1.096 1.096 0 0 1-.222.453.72.72 0 0 1-.647.039l-2.88-.777.032.148h-.07l.103.46c.092 0 .19 0 .271.158l-.462.716a7.101 7.101 0 0 1-2.603-.547 1.243 1.243 0 0 0 0 .142h-.038c-.055.82.87 1.35 1.152 2.121.114.337.114.702 0 1.04-.12.312-.306.595-.543.83-1.028 1.017-2.332.815-3.512 1.46a.753.753 0 0 0-.429.475.368.368 0 0 0-.038.263c.045.123.13.229.24.3.343.278.719.513 1.119.7l-.337.328a13.028 13.028 0 0 0-3.418 11.784 12.958 12.958 0 0 0 7.875 9.378c.043.224.076.454.108.7v.065l.033.312-3.886 1.64a3.092 3.092 0 0 1-2.783-1.799c-.902-1.88-4.093 0-4.093 0s-9.745-.738-13.349 1.067c0 0-5.815-2.455-6.63-2.62-.816-.163-2.05-.82-2.626-.655-.576.164-1.31-1.093-1.717-.984-.408.11-.544-.815-1.881-1.143-1.337-.328-1.804.082-3.261-1.394s-13.43-7.281-13.43-7.281l-5.403-4.423-5.734-4.581-.104.191c-.032-.137-.07-.279-.108-.426a54.898 54.898 0 0 0-2.125-6.725c-.37-.885-.544-2.006-1.028-1.415-.304.355-.826-.421-1.63-.946a1.347 1.347 0 0 0-2.022.59c-4.463 7.036-6.06 7.544-3.473 10.12 2.299 2.295 3.832 4.324 5.712 4.92l.223.07a.313.313 0 0 1-.125 0l10.87 13.093s7.86 6.878 13.268 9.086c5.408 2.209 4.995 2.865 4.995 2.865s16.376 8.348 18.914 8.2c2.539-.148 2.05 17.106.984 19.888-1.065 2.783-2.783 22.917-2.783 22.917s-1.63 4.253.082 7.2c0 0 .38 5.642.038 6.992-1.495 2.312-3.62 6.237-3.968 10.277 0 .214-.043.416-.065.624a1.41 1.41 0 0 1-.386.317s.141-.033.364-.11a20.877 20.877 0 0 1-1.087 4.92 20.15 20.15 0 0 0-1.337 7.107v13.006l-1.082 8.063s-1.31 6.107 0 7.528c.556.71.814 1.61.718 2.51a4.666 4.666 0 0 0 .837 2.924c.461.508.662 1.203.543 1.88-.434 1.417.642 16.472.642 16.472s-.315 4.15-.75 4.374c-.435.224.728 4.767.728 4.767s-4.424 3.712-3.3 5.68l1.131 1.743-.299.296-.184.186a1.715 1.715 0 0 0-1.125-.214 42.264 42.264 0 0 1-4.452 3.986c-1.995 1.448-7.424 3.548-7.424 3.548l-4.283.35h-.082s-2.049-.192-.902 3c1.147 3.193 11.414 2.187 11.414 2.187l5.979-.95s10.696.048 13.756-.63c1.283-.29 1.587-.973 1.506-1.672l-.033-.033a4.307 4.307 0 0 0-.875-1.81.852.852 0 0 0-.076-.093l.196-2.186c4.538-2.63-1.283-7.807-1.283-7.807s1.99-4.373 3.016-5.778c1.028-1.405 1.022-22.261 1.022-22.261s.544-7.533-.875-9.294a3.148 3.148 0 0 1 1.527-2.837c1.011-.694 4.066-10.256 6.463-18.193l1.511 9.353s-.326 4.472.658 5.784c.369.498.515 1.128.402 1.739a7.779 7.779 0 0 0 .223 3.788c.11.523.386.995.788 1.345.875.437.93 1.995 1.255 2.323.326.328 2.348-.464 2.457.733a26.91 26.91 0 0 1 0 3.165l.658 19.424s-1.087 1.64-1.31 5.893c-.093 1.837-.435 2.88-.788 3.477a1.785 1.785 0 0 0 .163 2.088l.19.219-.81.628a1.783 1.783 0 0 0-.5 2.187 1.761 1.761 0 0 0-.505 1.886c.039.106.086.208.14.306a3.053 3.053 0 0 0-1.63.81 13.41 13.41 0 0 1-2.88 2.919 54.394 54.394 0 0 0-4.599 3.958 6.606 6.606 0 0 1-2.685 2.186 4.33 4.33 0 0 1-.81.24c-2.173.444-1.472 2.707.272 3.062 1.745.356 7.534 2.154 12.04 1.094 0 0 1.336.546 3.299-.46 1.962-1.005 6.43-2.186 6.43-2.186s2.456 0 2.782-.984c.088-.312.136-.633.142-.957l.07-.066-.065-.06c.006-.732-.05-1.464-.168-2.186-.06-.372-.13-.711-.196-.979-.212-.82-.598-1.875-.766-2.323a.837.837 0 0 0 .076-.115c.934-1.591-.62-5.467-.62-5.467a10.431 10.431 0 0 1 1.853-2.187c.876-.65 3.17-17.674 3.17-17.674s-.11-4.373 1.086-6.33c1.196-1.957-1.63-13.859-1.63-13.859s-1.202-2.733-.761-3.712c.44-.978-.44-4.58-.44-4.58v-4.298a4.748 4.748 0 0 0-.25-1.509c-.338-1.01-.838-2.952-.294-4.373.766-1.963 2.511-14.077 2.511-14.077s-1.364-5.341.63-9.594c.161-.34.343-.671.544-.99 1.478-2.34 1.038-6.494.31-9.84a51.017 51.017 0 0 0-.353-1.492c-.055-.203-.11-.394-.158-.585l.234-.099s0-.322.07-.863a5.979 5.979 0 0 0 3.94-2.734s4.996-5.647 9.42-8.02c4.424-2.372 4.75-5.81 4.75-5.81-.657-1.149 1.169-5.812 1.169-5.812l-.185-5.046zm-14.387 7.528l-4.728 5.516a.115.115 0 0 1 0-.033c-1.229-1.716 1.146-5.565 1.146-5.565l3.908-8.807c-.032 1.137-.168 2.132-.51 2.602-1.088 1.476 1.962 3.93 1.962 3.93-1.636-.016-1.8 2.357-1.8 2.357h.022z"/>
        <path fill="#CC818C" d="M414.5 37.336l-2.5 5.082a9.302 9.302 0 0 1-2.33-.507c-2.418-.762-4.41-2.57-5.472-4.967-2.236-5.176 1.465-8.52 3.19-9.503 1.724-.982 3.321-2.113 4.613 1.104a57.887 57.887 0 0 1 2.035 6.744c.285 1.225.464 2.047.464 2.047zM496.5 62.544l-4.048 6.172s-19.15 9.333-15.486-1.637c1.602-4.83 1.8-8.366 1.511-10.811v-.066c-.374-3.056-1.5-4.365-1.5-4.365s18.663-9.758 15.886-3.084a9.462 9.462 0 0 0-.662 4.393c.23 2.157.918 4.237 2.013 6.096a20.198 20.198 0 0 0 2.286 3.302z"/>
        <path fill="#444053" d="M491.552 184.85s2.844 11.743 1.653 13.683c-1.19 1.939-1.102 6.246-1.102 6.246s-2.298 16.812-3.174 17.458a10.36 10.36 0 0 0-1.858 2.173s1.56 3.802.623 5.378a1.29 1.29 0 0 1-.623.543c-1.466.608-6.878-2.092-9.959-3.748a1.68 1.68 0 0 1-.815-.962 1.695 1.695 0 0 1 .501-1.857 1.754 1.754 0 0 1 .502-2.173l.81-.62-.187-.217a1.745 1.745 0 0 1-.166-2.064c.353-.586.695-1.63.788-3.427.22-4.205 1.312-5.818 1.312-5.818l-.656-19.18c.06-1.04.06-2.083 0-3.123-.11-1.184-2.133-.402-2.458-.728-.325-.326-.386-1.858-1.256-2.292a2.405 2.405 0 0 1-.794-1.326 7.617 7.617 0 0 1-.226-3.742 2.18 2.18 0 0 0-.402-1.717c-.987-1.292-.656-5.709-.656-5.709l-1.51-9.234c-2.403 7.838-5.462 17.279-6.47 17.963a3.096 3.096 0 0 0-1.533 2.803c1.422 1.722.877 9.158.877 9.158s0 20.576-1.026 21.978c-1.025 1.401-3.02 5.709-3.02 5.709s5.859 5.138 1.251 7.73l-.05.026c-4.7 2.586-14.428-4.628-14.428-4.628l1.014-.999.298-.293-1.103-1.728c-1.13-1.939 3.307-5.6 3.307-5.6s-1.18-4.525-.744-4.742c.436-.217.744-4.313.744-4.313s-1.074-14.867-.64-16.263a2.15 2.15 0 0 0-.517-1.858 4.59 4.59 0 0 1-.838-2.884 3.398 3.398 0 0 0-.716-2.477c-1.312-1.401 0-7.436 0-7.436l1.102-7.974v-12.7c0-2.435.447-4.85 1.323-7.126a21.24 21.24 0 0 0 1.19-5.737c.358-4.084 2.585-8.055 4.084-10.32.794-1.195 1.383-1.912 1.383-1.912l34.98-1.353s.552 1.538 1.103 3.672c.121.467.243.956.353 1.472.733 3.314 1.174 7.415-.309 9.729-.207.31-.392.635-.551.972-2 4.199-.634 9.473-.634 9.473s-1.747 11.95-2.513 13.9c-.551 1.375-.044 3.292.298 4.292.162.48.245.982.248 1.488v4.242s.876 3.553.44 4.525c-.435.972.75 3.667.75 3.667z"/>
        <path fill="#000" d="M492.444 142.419c-.22.321-.417.655-.592 1l-2.114-.112c.201-1.028-1.238-10.66-1.238-10.66l4.264-.229c.793 3.429 1.273 7.65-.32 10z" opacity=".1"/>
        <path fill="#444053" d="M493.443 142.419c-.223.319-.42.653-.592 1l-2.12-.112c.208-1.028-1.231-10.665-1.231-10.665l4.257-.224c.805 3.406 1.279 7.622-.314 10z"/>
        <path fill="#000" d="M493.443 142.419c-.223.319-.42.653-.592 1l-2.12-.112c.208-1.028-1.231-10.665-1.231-10.665l4.257-.224c.805 3.406 1.279 7.622-.314 10z" opacity=".05"/>
        <path fill="#000" d="M487.5 229.766c-.136.252-.348.45-.601.562-1.415.63-6.638-2.164-9.612-3.879a1.711 1.711 0 0 1-.787-.995c1.691-.326 2.803 1.686 2.803 1.686a2.382 2.382 0 0 1 1.918-.33c.656.168 1.219.61 1.56 1.224 1.453 2.249 4.565 1.304 4.565 1.304s.064.152.154.428z" opacity=".1"/>
        <path fill="#F8CB00" d="M488.352 237.315c-.327 1.005-2.757 1.005-2.757 1.005s-4.36 1.292-6.3 2.296c-1.94 1.005-3.27.474-3.27.474-4.463 1.067-10.19-.778-11.918-1.128-1.728-.35-2.409-2.686-.273-3.132.275-.057.543-.142.801-.254a6.56 6.56 0 0 0 2.66-2.257 55.727 55.727 0 0 1 4.55-4.062 13.417 13.417 0 0 0 2.856-2.99c2.54-2.326 4.36.868 4.36.868a2.482 2.482 0 0 1 1.965-.332 2.566 2.566 0 0 1 1.599 1.23c1.487 2.256 4.675 1.308 4.675 1.308s.545 1.512.84 2.602c.065.276.136.626.196 1.01a9.138 9.138 0 0 1 .016 3.362z"/>
        <circle cx="481" cy="229.918" r="1" fill="#575988"/>
        <circle cx="478" cy="231.918" r="1" fill="#575988"/>
        <circle cx="476" cy="233.918" r="1" fill="#575988"/>
        <circle cx="477" cy="232.918" r="1" fill="#575988"/>
        <circle cx="480" cy="230.918" r="1" fill="#575988"/>
        <path fill="#DCE6F2" d="M488.362 236.571c-.327.942-2.758.942-2.758.942s-4.362 1.212-6.302 2.153c-1.941.942-3.272.445-3.272.445-4.465 1-10.194-.73-11.923-1.058-1.728-.328-2.41-2.519-.272-2.936.274-.054.543-.134.801-.239a21.28 21.28 0 0 0 5.85 1.059c4.405.18 7.894 0 7.894 0l4.46-1.392a7.61 7.61 0 0 1 2.758-.973 7.198 7.198 0 0 0 2.726-1.154 8.04 8.04 0 0 1 .038 3.153z"/>
        <path fill="#575988" d="M477.238 239.418a3.7 3.7 0 0 1-.738-.075l.065-.312c.904.14 1.83.012 2.66-.365.397-.156.794-.339 1.18-.538.385-.199.922-.43 1.4-.607l.44-.151c.244-.08.488-.161.722-.263.136-.054.266-.119.396-.178a4.447 4.447 0 0 1 1-.376c.179-.034.36-.057.542-.07.164-.011.327-.031.49-.06.323-.077.636-.193.933-.343.32-.161.656-.284 1.005-.366l.238-.043c.254-.006.498-.095.696-.253l.233.22c-.245.212-.555.335-.88.35l-.222.038a4.273 4.273 0 0 0-.934.344c-.32.16-.656.283-1.005.366-.179.035-.36.056-.543.064-.17.013-.338.034-.505.065a4.13 4.13 0 0 0-.923.354l-.407.183c-.25.102-.5.188-.75.27l-.428.15c-.467.172-.929.387-1.38.591-.45.204-.787.371-1.194.538a5.793 5.793 0 0 1-2.09.467z" opacity=".5"/>
        <path fill="#000" d="M478.5 186.418s2.33-3.587 6.311-3.527c3.981.06 5.689-.473 5.689-.473s-2.55 1.597-4.315 1.794c-1.764.197-7.685 2.206-7.685 2.206z" opacity=".1"/>
        <path fill="#000" d="M479.5 186.418s1.888-1.731 2.97-1.798c1.08-.067 2.03-.202 2.03-.202a5.311 5.311 0 0 1-1.66 1.067c-.924.336-3.34.933-3.34.933zM480.5 187.418s2.973.232 3 1M451.5 142.418c.155.029 2.824-2.98 3.011-4.17a2.93 2.93 0 0 1 1.164-1.83s1.725.738.187 2.997c-1.538 2.26-4.362 3.003-4.362 3.003zM493.206 48.817c-.64 1.516-1.208 1.628-1.084 3.099a11.163 11.163 0 0 1-2.55 2.004c-1.993 1.185-4.16 3.498-6.642 3.498a13.17 13.17 0 0 1-4.852-.915c-.393-3.144-1.578-4.492-1.578-4.492s19.615-10.061 16.706-3.194z" opacity=".1"/>
        <path fill="#CC818C" d="M496.5 44.418c0 7.18-5.82 13-13 13s-13-5.82-13-13 5.82-13 13-13a12.995 12.995 0 0 1 13 13z"/>
        <path fill="#000" d="M496.5 62.636l-4.048 6.115s-19.15 9.245-15.486-1.622c1.602-4.785 1.8-8.288 1.511-10.71h.032c.226.802.354 1.63.38 2.465.058 1.665.1 3.784 4.191 4.476 6.82 1.163 10.483-3.157 11.124-4.006a20.005 20.005 0 0 0 2.296 3.282zM414.5 36.467l-2.476 4.951a9.353 9.353 0 0 1-2.31-.494l-.214-.264c1.014.398 4.43-6.242 4.43-6.242l.11.092c.282 1.156.46 1.957.46 1.957zM492.5 130.795c-8.295 3.332-37 .501-37 .501.09-.281.139-.573.146-.866a23.765 23.765 0 0 1 1.36-1.764l34.389-1.248s.558 1.408 1.105 3.377z" opacity=".1"/>
        <path fill="#00A8FF" d="M479.064 57.347l-3.837 1.634a3.065 3.065 0 0 1-2.75-1.787c-.885-1.863-4.038 0-4.038 0s-9.624-.73-13.179 1.057c0 0-5.739-2.435-6.521-2.593-.783-.158-2.022-.811-2.587-.648-.566.163-1.294-1.057-1.696-.975-.402.082-.57-.812-1.864-1.133-1.294-.321-1.777.082-3.234-1.378-1.456-1.46-13.255-7.211-13.255-7.211l-5.337-4.358-5.657-4.537s-3.56 6.722-4.609 6.318L421.25 54.7s7.76 6.808 13.098 8.992c5.336 2.184 4.929 2.838 4.929 2.838s16.173 8.262 18.679 8.104c2.505-.158 2.022 16.934.967 19.69-1.054 2.756-2.744 22.685-2.744 22.685s-1.63 4.21.076 7.13c0 0 .407 5.991 0 7.048 0 0 28.972 3.104 37.19-.545 0 0 1.211-13.448 0-15.152-1.212-1.705 1.135-5.507 1.135-5.507l5.136-11.612 12.598-12.73s1.94-10.615-6.707-17.428l-5.744-5.104s-3.212-2.783-4.147-2.957c-.935-.175-.592 0-.592 0s-3.75 5.446-11.413 4.172c-4.163-.703-4.207-2.827-4.266-4.51a10.239 10.239 0 0 0-.38-2.467z"/>
        <path fill="#000" d="M494.5 100.418s-17.503.693-21 6c0 0 4.535-2.067 8.588-1.462 4.054.604 12.412-4.538 12.412-4.538zM474.5 120.341s8.427.528 10.213-1.177c1.787-1.706 1.787-2.746 1.787-2.746l-12 3.923zM496.066 83.418s-6.635 8.378 1.434 12l-1.434-12zM454.5 67.418s2.667 5.624 4 6l-4-6zM445.5 65.418s6.737 5.47 8 6c0 0-6.992-6-8-6zM471.5 59.418s-7.028 9.32-2.453 15c-.037 0-2.563-6.731 2.453-15z" opacity=".1"/>
        <path fill="#CC818C" d="M486.5 129.666l-1.887 1.813-.264.253-2.184 2.111c-.162.122-.313.243-.47.353-8.896 6.52-10.68-3.384-10.68-3.384s-3.93 2.624-4.492.49c-.56-2.133 9.166-5.164 10.584-4.999.13.014.26.014.389 0a6.012 6.012 0 0 0 1.995-.722c.145-.077.29-.154.431-.237.496-.282.976-.591 1.44-.926l5.138 5.248z"/>
        <path fill="#000" d="M496.484 44.325c0 4.551-2.38 8.767-6.266 11.093a7.55 7.55 0 0 1-.466-.938c-.46-1.092-.743-2.232-1.203-3.312a10.337 10.337 0 0 0-2.168-3.16 1.372 1.372 0 0 0-.542-.398 1.548 1.548 0 0 0-1.176.327 5.305 5.305 0 0 1-1.789.791 1.894 1.894 0 0 1-1.794-.545c-.499-.6-.428-1.484-.282-2.254.309-1.68.835-3.328.835-5.036 0-1.708-.64-3.553-2.114-4.398-1.3-.742-2.916-.546-4.363-.955a4.673 4.673 0 0 1-.656-.23 12.762 12.762 0 0 1 14.01-2.939c4.83 1.98 7.988 6.705 7.99 11.954h-.016z" opacity=".1"/>
        <path fill="#585268" d="M473.929 33.315c-.233.127-.487.351-.417.614.043.124.125.23.233.302a5.524 5.524 0 0 0 2.026 1.052c1.446.395 3.066.209 4.366.96 1.468.85 2.118 2.697 2.113 4.413-.006 1.715-.542 3.376-.84 5.06-.14.778-.217 1.644.287 2.269a1.898 1.898 0 0 0 1.793.548 5.25 5.25 0 0 0 1.782-.79 1.53 1.53 0 0 1 1.176-.328c.22.081.418.217.574.394.914.912 1.65 1.991 2.167 3.18.466 1.096.748 2.236 1.203 3.327a5.354 5.354 0 0 0 2.166 2.708 2.684 2.684 0 0 0 3.25-.345c.748-.834.727-2.094 1.084-3.163.64-1.848 2.427-3.01 3.543-4.605 1.257-1.792 1.625-4.056 1.945-6.227a5.29 5.29 0 0 0 .032-2.083 7.59 7.59 0 0 0-.569-1.316c-1.246-2.61-1.219-5.893-3.207-7.981-1.495-1.563-3.76-2.04-5.893-2.303-2.135-.263-4.372-.427-6.203-1.562a6.803 6.803 0 0 0-1.68-.943 1.374 1.374 0 0 0-1.651.625 1.102 1.102 0 0 1-.223.455.697.697 0 0 1-.628.038l-2.839-.772.325 1.447a7.012 7.012 0 0 1-3.011-.548c-.055.816.855 1.348 1.137 2.11.21.714 0 1.485-.542 1.99-1.05 1.036-2.34.833-3.499 1.474z"/>
        <path fill="#000" d="M461.5 226.596l-.111 1.253-.048.027c-4.51 2.507-13.841-4.488-13.841-4.488l.973-.97c.32.356.474.831.423 1.307l1.908.105 2.28 2.455s6.169.711 7.84.31h.576z" opacity=".1"/>
        <path fill="#F8CB00" d="M460.985 233.727c-3.052.665-13.746.616-13.746.616l-5.971.934s-10.276.967-11.42-2.16c-1.143-3.127.896-2.943.896-2.943h.077l4.278-.34s5.427-2.064 7.417-3.484a42.54 42.54 0 0 0 4.443-3.91s1.787-.34 1.754 1.69l1.984.108 2.37 2.512s6.416.734 8.154.324h.6l-.276 3.105.077.097c.38.48 2.09 2.852-.637 3.451z"/>
        <circle cx="450" cy="225.918" r="1" fill="#575988"/>
        <circle cx="443" cy="228.918" r="1" fill="#575988"/>
        <circle cx="439" cy="230.918" r="1" fill="#575988"/>
        <circle cx="445" cy="228.918" r="1" fill="#575988"/>
        <circle cx="441" cy="229.918" r="1" fill="#575988"/>
        <circle cx="447" cy="227.918" r="1" fill="#575988"/>
        <circle cx="449" cy="226.918" r="1" fill="#575988"/>
        <path fill="#DCE6F2" d="M460.985 233.807c-3.052.633-13.746.587-13.746.587l-5.971.89s-10.276.921-11.42-2.059c-1.143-2.98.896-2.805.896-2.805h.077c.655.793 1.969 1.699 4.553 1.74l7.39.283 7.658-.515s7.148-.206 8.341-.432a18.103 18.103 0 0 0 2.86-.983c.379.463 2.089 2.723-.638 3.294z"/>
        <path fill="#575988" d="M441.712 234.418a4.494 4.494 0 0 1-1.212-.16l.11-.322a5.524 5.524 0 0 0 3.053-.149c.364-.1.722-.214 1.103-.333a11.63 11.63 0 0 1 5.318-.649h.237c3.285.19 6.58.03 9.837-.476a3.515 3.515 0 0 0 2.105-.91l.237.25a3.838 3.838 0 0 1-2.287 1.011 47.347 47.347 0 0 1-9.92.476h-.231a14.909 14.909 0 0 0-3.257.102c-.662.134-1.315.31-1.957.53-.364.118-.727.237-1.102.339a7.625 7.625 0 0 1-2.034.291z" opacity=".5"/>
        <path fill="#000" d="M487.5 129.62l-2.008 1.798-4.992-6.082c.527-.28 1.039-.586 1.532-.918l5.468 5.203z" opacity=".1"/>
        <path fill="#00A8FF" d="M508.006 80.418l3.734 5.15v5.41s1.71 5.717 0 11.43l.192 4.987s-1.813 4.587-1.163 5.712c0 0-.328 3.381-4.712 5.718-4.385 2.337-9.342 7.844-9.342 7.844s-1.867 3.543-6.901 2.737l-4.794 2.012-5.52-7 7.47-4.024s2.598-3.462 4.143-3.3l6.334-7.308s.163-2.331 1.785-2.331c0 0-3.003-2.413-1.95-3.863 1.055-1.45.165-7.887.165-7.887l10.559-15.287z"/>
        <path fill="#000" d="M501.5 103.616s8.813-.174 9.902 2.226c1.09 2.4-7.216-3.561-9.902-2.226zM484.5 131.397c.002.15-.009.3-.033.45-.204 1.42-1.33 2.494-2.695 2.571h-.153c-1.588 0-2.876-1.352-2.876-3.02.002-.336.056-.668.16-.985-1.36-1.15-1.43-3.21-1.397-4.24a6.002 6.002 0 0 0 2.026-.755c.355 1.071.831 2.093 1.419 3.044.218-.057.442-.086.668-.086a2.806 2.806 0 0 1 2.036.883 3.1 3.1 0 0 1 .845 2.138z" opacity=".1"/>
        <path fill="#575988" d="M479.665 125.418s-2.125.438-2.125.792c0 .354-.477 3.57 1.853 4.887 2.33 1.317 2.1-1.838 2.1-1.838s-2.01-2.828-1.828-3.84z"/>
        <circle cx="482.5" cy="131.418" r="3" fill="#E4AAB4"/>
        <circle cx="482" cy="131.918" r="2.5" fill="#DCE6F2"/>
        <path fill="#000" d="M470.545 133.418s6.107 4.731 13.955 1.735v2.288s-5.232 3.356-9.975 1.324c-4.744-2.032-3.98-5.347-3.98-5.347z" opacity=".1"/>
        <path fill="#000" d="M470.545 132.418s6.123 4.743 13.955 1.724v2.294s-5.232 3.364-9.975 1.327c-4.744-2.037-3.98-5.345-3.98-5.345z" opacity=".1"/>
        <path fill="#444053" d="M470.545 132.418s6.123 4.743 13.955 1.724v2.294s-5.232 3.364-9.975 1.327c-4.744-2.037-3.98-5.345-3.98-5.345z"/>
        <path fill="#000" d="M471.543 132.418s6.107 4.736 13.957 1.736v2.291s-5.25 3.344-9.977 1.326c-4.727-2.02-3.98-5.353-3.98-5.353z" opacity=".05"/>
        <path fill="#000" d="M451.5 222.418s8.315 1.652 9.534 2.008c1.218.357-.336.992-.336.992s-7.617-1.47-9.198-3zM451.5 218.418c.137 0 5.782-1.474 7-4M459.5 187.422s2.236 3.082 3.679 2.995c1.442-.088-2.365-3.113-3.679-2.995zM461.5 191.418s.808 2.691 2 1.83" opacity=".1"/>
        <path fill="#000" d="M465.5 147.44l5.806 14.978s.82-9.637-.913-12.523c-1.004-1.68-2.913-2.637-4.893-2.455z" opacity=".05"/>
        <g fill="#000" opacity=".1">
            <path d="M479.77 27.31l-.05-.217-.915-.245.103.451c.286.023.574.027.861.011zM477.26 30.949l.097-.087a1.943 1.943 0 0 0 .538-1.97 2.675 2.675 0 0 0-.452-.733 6.947 6.947 0 0 1-1.32-.392c-.053.81.852 1.333 1.132 2.094.125.351.126.735.005 1.088zM492.39 55.82a5.336 5.336 0 0 1-2.153-2.687c-.458-1.088-.732-2.23-1.195-3.301a10.146 10.146 0 0 0-2.154-3.15 1.362 1.362 0 0 0-.566-.396c-.417-.059-.84.06-1.168.326-.54.37-1.142.636-1.777.788a1.91 1.91 0 0 1-1.782-.543c-.496-.599-.426-1.48-.28-2.247.312-1.675.829-3.323.834-5.025.006-1.702-.64-3.535-2.105-4.35-1.292-.746-2.897-.545-4.308-.952a5.451 5.451 0 0 1-2.014-1.045l-.113-.103c-.12.05-.236.106-.35.169-.231.125-.479.348-.414.603.046.124.129.23.237.305.593.482 1.279.836 2.013 1.039 1.438.397 3.043.212 4.335.957 1.465.837 2.105 2.676 2.105 4.35 0 1.676-.538 3.35-.834 5.02-.146.767-.216 1.632.28 2.247.459.484 1.135.69 1.782.544a5.358 5.358 0 0 0 1.777-.784c.329-.265.75-.385 1.168-.331.209.087.393.223.539.397A10.271 10.271 0 0 1 488.4 50.8c.463 1.087.737 2.224 1.195 3.3a5.326 5.326 0 0 0 2.154 2.72c1.018.544 2.428.544 3.23-.343.209-.237.371-.512.48-.81a2.724 2.724 0 0 1-3.07.152zM496.99 51.713c.802-1.022 1.852-1.892 2.605-2.97.15-.213.288-.434.415-.663-.97 1.246-2.3 2.252-3.02 3.633z"/>
        </g>
        <g fill="#000" opacity=".1">
            <path d="M449.53 35.643H320.393c-3.722.009-6.74 3.028-6.751 6.758v81.74c.012 3.73 3.029 6.75 6.751 6.76h101.301s2.626 13.959-6.004 15.457c0 0 19.31 1.39 15.938-15.458h17.897c3.722-.009 6.737-3.03 6.746-6.758V42.4c-.01-3.727-3.021-6.746-6.74-6.758z"/>
            <g opacity=".2" transform="translate(332.603 57.29)">
                <rect width="104.608" height="6.387" x=".049" y=".049" rx="3.193"/>
                <rect width="86.319" height="6.387" x=".049" y="28.592" rx="3.193"/>
                <rect width="62.14" height="6.387" x=".049" y="14.321" rx="3.193"/>
            </g>
        </g>
        <path fill="#FFF" d="M451.742 35.418H322.269c-3.733.012-6.757 3.013-6.769 6.719v81.188c.012 3.704 3.037 6.703 6.77 6.712h101.563s2.633 13.866-6.019 15.354c0 0 19.36 1.38 15.979-15.354h17.943c3.732-.009 6.755-3.009 6.764-6.712V42.137c-.009-3.703-3.028-6.704-6.758-6.719z"/>
        <g fill="#00A8FF" opacity=".2" transform="translate(334.5 56.418)">
            <rect width="104.814" height="6.388" x=".098" y=".011" rx="3.194"/>
            <rect width="86.488" height="6.388" x=".098" y="28.563" rx="3.194"/>
            <rect width="62.262" height="6.388" x=".098" y="14.29" rx="3.194"/>
        </g>
        <path fill="#00A8FF" d="M45.01 301.418s1.998 2.565-.927 6.44c-2.925 3.875-5.34 7.155-4.362 9.56 0 0 4.413-7.193 8.006-7.292 3.593-.1 1.235-4.382-2.717-8.708z"/>
        <path fill="#000" d="M44.958 301.418c.174.249.312.519.409.804 3.55 4.04 5.435 7.805 2.027 7.904-3.174.088-6.98 5.586-7.894 6.979 0 .104.068.209.108.313 0 0 4.464-7.193 8.099-7.292 3.634-.1 1.25-4.382-2.75-8.708z" opacity=".1"/>
        <path fill="#FFD037" d="M49.41 304.941c0 .808-.18 1.477-.41 1.477-.23 0-.41-.655-.41-1.477 0-.822.23-.428.46-.428s.36-.38.36.428z"/>
        <path fill="#FFD037" d="M50.022 305.921c-.778.355-1.459.567-1.518.477-.06-.09.54-.45 1.302-.8.761-.351.475-.095.54 0 .064.094.453-.028-.324.323z"/>
        <path fill="#00A8FF" d="M34.99 301.418s-1.998 2.565.927 6.44c2.925 3.875 5.34 7.155 4.362 9.56 0 0-4.413-7.193-8.006-7.292-3.593-.1-1.235-4.382 2.717-8.708z"/>
        <path fill="#000" d="M35.042 301.418a3.197 3.197 0 0 0-.409.804c-3.55 4.04-5.435 7.805-2.027 7.904 3.174.088 6.98 5.586 7.894 6.979-.028.104-.068.209-.108.313 0 0-4.464-7.193-8.099-7.292-3.634-.1-1.25-4.382 2.75-8.708z" opacity=".1"/>
        <path fill="#FFD037" d="M31.59 304.941c0 .808.18 1.477.41 1.477.23 0 .41-.655.41-1.477 0-.822-.23-.428-.46-.428s-.36-.38-.36.428zM29.98 305.921c.777.355 1.457.567 1.516.477.06-.09-.54-.45-1.3-.8-.76-.351-.475-.095-.54 0-.064.094-.458-.028.324.323z"/>
        <ellipse cx="40" cy="333.418" fill="#6C63FF" opacity=".1" rx="20.5" ry="3"/>
        <path fill="#4B5184" d="M50.498 313.598l-.098.789-.137 1.12-.06.468-.137 1.114-.054.468-.137 1.12-1.563 12.719c-.136 1.136-2 2.022-4.251 2.022h-8.12c-2.251 0-4.11-.886-4.251-2.022l-1.563-12.713-.137-1.12-.054-.468-.137-1.115-.06-.468-.137-1.12-.098-.788c-.076-.642.934-1.186 2.186-1.186h16.562c1.29-.005 2.3.539 2.246 1.18z"/>
        <path fill="#9D9CB5" d="M50.5 314.418l-.138 1H29.638l-.138-1zM50.5 316.418l-.134 1H30.639l-.139-1zM50.5 318.418l-.137 1H30.637l-.137-1z"/>
        <ellipse cx="353.5" cy="430.918" fill="#00A8FF" opacity=".1" rx="46" ry="7.5"/>
        <g fill="#000" opacity=".1">
            <path d="M405.93 198.895H266c-4.034.012-7.301 3.29-7.313 7.336v88.697c.012 4.047 3.279 7.325 7.313 7.337H375.77s2.843 15.144-6.5 16.77c0 0 20.919 1.506 17.262-16.77h19.397c4.034-.012 7.301-3.29 7.313-7.337v-88.697c-.012-4.047-3.279-7.324-7.313-7.336z"/>
            <g opacity=".2" transform="translate(279.24 237.84)">
                <rect width="113.357" height="6.931" x=".044" y="15.577" rx="3.466"/>
                <rect width="49.152" height="6.931" x=".044" y=".088" rx="3.466"/>
            </g>
        </g>
        <path fill="#FFF" d="M405.214 198.418H265.786c-4.02.012-7.274 3.285-7.286 7.326v88.567c.012 4.041 3.267 7.314 7.286 7.326h109.356s2.833 15.122-6.476 16.751c0 0 20.846 1.504 17.203-16.75h19.345c4.02-.013 7.274-3.286 7.286-7.327v-88.567c-.012-4.04-3.267-7.314-7.286-7.326z"/>
        <g fill="#00A8FF" opacity=".2" transform="translate(278.5 236.418)">
            <rect width="113.291" height="6.933" x=".464" y="16.001" rx="3.466"/>
            <rect width="49.124" height="6.933" x=".464" y=".509" rx="3.466"/>
        </g>
        <path fill="url(#b)" d="M379.475 425.253c-.662-2.799-1.094-5.26-1.094-5.26s.153-3.05-1.219-5.342v-6.401c.39-1.023.867-2.01 1.427-2.952 1.017-1.773 0-8.267 0-8.267s-3.772-9.156-2.853-14.962c.918-5.806-7.746-25.794-7.746-25.794.053-1.927.326-3.842.814-5.708.091-.391.128-.793.11-1.195a1.28 1.28 0 0 0 0-.147v.05c-.132-3.82-3.165-11.012-3.165-11.012l.41-13.68s1.935-8.07-1.225-18.902c-1.093-3.776-1.81-6.805-2.257-9.135-.05-.267-.099-.546-.143-.764 6.505-.988 11.48-1.811 11.48-1.811s-3.761-15.754-6.308-18.482c-2.548-2.729-4.581-11.46-4.581-11.46s-1.329-11.126.814-14.372c2.143-3.247 2.444-8.857 2.444-8.857s4.92-3.546 5.504-5.118c.585-1.571 1.64-5.118 1.64-6.99 0-1.872-.612-3.547-.41-4.53.202-.981-1.427-4.725-.612-6.498a4.767 4.767 0 0 0 .328-1.708v-.05c.005-1.548-.14-3.094-.432-4.615a13.127 13.127 0 0 0-4.838-2.581l-.109-.426-.273-1.091a6.609 6.609 0 0 0-.481-.29v-.403l-.05-1.6.771-3.59c1.504-6.253-6.854-7.186-6.854-7.186a4.37 4.37 0 0 0-2.367-2.068c-1.684-.59-.28 9.402.508 10.04.59.48 2.416 3.612 3.28 5.151l.142.257c-.14.12-.267.254-.383.398l.317 2.183.05.333a9.087 9.087 0 0 0-1.334 2.27s1.53 1.675 1.224 3.546c-.306 1.872.465 4.202.503 4.328-.087-.104-1.164-1.266-2.236-.983-1.071.284-4.078 1.184-4.078 1.184s-2.24.393-2.033.884c.208.492-1.53 2.658-1.53 2.658l-6.014-5.697c-.054-.17-.12-.338-.174-.518a14.27 14.27 0 0 1-.547-2.494 14.313 14.313 0 0 0 1.924-.611 4.166 4.166 0 0 0 1.64-1.064c.607-.72.721-1.697.967-2.592.481-1.752 1.504-3.312 2.236-4.977a16.126 16.126 0 0 0 1.203-8.932 5.892 5.892 0 0 0-.924-2.614c-.984-1.353-2.766-1.899-4.067-2.98-1.301-1.08-2.132-2.728-3.64-3.53-1.367-.731-3.034-.644-4.576-.393a24.675 24.675 0 0 0-8.533 3.1c-.88.518-1.842 1.118-2.853.938-.864-.158-1.498-.851-2.061-1.511 0-.028 0-.055.027-.082l-.065-.077a10.554 10.554 0 0 0-.891 4.458c0 .24 0 .48.027.72V195.909a1.09 1.09 0 0 1-.044.322c-.123.306-.309.584-.546.813-.186.206-.35.429-.492.666a2.18 2.18 0 0 1 .082-.246 3.57 3.57 0 0 0-.623 1.9c-.035.492.126.978.448 1.352.301.295.631.56.984.792a11.452 11.452 0 0 0 5.466 11.917c.071.17.142.344.208.519.77 2.024 1.35 4.365 1.093 6.548 0 .163-.044.322-.077.48-.032.158-.147.163-.213.25 0 0-9.943.099-12.288-2.018-2.345-2.117-5.91 5.167-5.91 5.167s-3.563.688-4.274 0c-.71-.687-4.892-.098-4.892-.098a9.002 9.002 0 0 0-6.188-2.259 18.398 18.398 0 0 0-4.559-2.532l-.11-.038a5.136 5.136 0 0 0-2.24-.284s-4.893-4.038-6.32-6.199c-1.426-2.16-8.2-10.198-8.248-10.236v-.388l-.077-1.173c-.2.034-.403.052-.607.055-.038-.115-.082-.251-.136-.404a22.652 22.652 0 0 0-1.443-3.313s0-1.473.432-1.844c.431-.37-.18-5.784-.18-5.784s-4.407-10.286-8.353-2.608c0 0-7.462 4.97-1.198 10.755 0 0 2.499 1.206 2.848 2.183.235.622 1.094 2.357 1.64 3.508l.257.519-.07.06.092.965.038.372c-1.18.67-1.978 1.331-1.787 1.833.348.853.589 1.745.716 2.657 0 0 8.626 10.805 9.746 15.443 0 0 23.227 13.778 30.869 14.76l-1.323 6.892a55.017 55.017 0 0 0-.306 5.61c.098 1.478-.919 8.185-.919 8.185s-1.322 9.822-2.443 11.219c-1.12 1.396-.891 7.273-.891 7.273a49.653 49.653 0 0 1-1.53 8.365c-1.094 3.744-.307 8.371-.307 8.371s-3.87 8.856 5.401 2.854c0 0 4.554-.284 9.796-.464v.546c0 .67 0 1.402-.033 2.182-.071 5.075-.098 12.065.131 17.358.41 9.348 3.28 27.857 3.28 27.857v9.276a12.747 12.747 0 0 0-.268 2.657 17.302 17.302 0 0 0 2.51 9.31l.715 6.198s1.673 4.087 1.706 6.548c-.008.2-.032.4-.071.595-.063.313-.09.631-.082.95-.093 2.815 1.607 9.549 1.607 9.549s.098 6.794 1.093 7.186c.87.339-1.164 3.918-1.771 4.944 0-.065 0-.13-.038-.196l-.126.207a4.75 4.75 0 0 0-.317 1.713 2.47 2.47 0 0 0 1.131 2.39c1.935 1.18 2.974 2.183 1.329 2.56-.604.094-1.203.22-1.793.376l-.088-.229c-.473.192-.75.686-.667 1.19.012.805.22 1.595.607 2.302 1.64 3.645 2.733 5.02 2.733 5.02l.788-.087a4.205 4.205 0 0 1-.454.84 3.245 3.245 0 0 1-1.154 1.02 3.48 3.48 0 0 1-1.394.476 3.944 3.944 0 0 0-2.886 1.402c-1.016 1.315-1.64 3.1.356 4.671l7.286 2.51s12.529 1.637 11.868-1.184c-.662-2.821-1.094-5.266-1.094-5.266a11.071 11.071 0 0 0-1.016-4.976 6.671 6.671 0 0 0-.443-.731l.443-.05s.918-6.204 2.137-7.383c.284-.272.35-.48.279-.643.125-.339-.192-.546-.602-.65l-.087.246a5.974 5.974 0 0 0-1.219-.137s-.405-3.246.918-4.425c.216-.273.31-.622.257-.966a5.415 5.415 0 0 0-.136-1.326l-.05.077c-.667-2.947-2.924-7.64-2.924-7.64s-.104-2.952.716-4.136c.82-1.184-.104-16.043-.104-16.043s.306-7.186-.612-10.531c-.918-3.345 1.12-7.285 1.12-7.285v-.218l.028-.05s-.05-.441-.12-1.129v.066c-.208-1.9-.596-5.348-.88-6.941-.41-2.265.098-13.096.098-13.096l1.837-4.628 3.28 7.978 3.465 10.63s1.716 2.243 1.755 4.518c.008.11.008.222 0 .333a6.4 6.4 0 0 0-.039.715 6.289 6.289 0 0 0 1.055 3.781s.919 5.02 2.345 6.303c1.427 1.282 1.427 3.737 1.427 3.737s1.728 7.285 2.548 8.567c.683 1.092.721 4.044.716 4.95v.267s.24 2.603.23 4.791v.78a7.98 7.98 0 0 1-.213 1.713c-.001 0-.001.066-.034.104l.033-.37a18.723 18.723 0 0 0-.547 4.54c-.049 2.619.35 5.718 1.94 7.535 2.734 3.154 4.483 2.761 4.483 2.761s-1.323 3.934-2.957 4.72a.924.924 0 0 0-.17.115c0-.077-.032-.153-.043-.23-.358.401-.531.934-.476 1.468-.12 1.73.973 4.54 2.017 5.834.384.38.858.656 1.378.802l-.257.158c-.177.099-.36.188-.547.267a2.644 2.644 0 0 1-.83.213 3.906 3.906 0 0 0-2.887 1.403c-1.017 1.31-1.64 3.094.356 4.665l7.286 2.51s12.447 1.604 11.786-1.206z"/>
        <path fill="#2D293D" d="M331.912 429.967l-7.127-2.462c-1.967-1.541-1.337-3.291-.348-4.581a3.855 3.855 0 0 1 2.823-1.376c.485-.056.95-.215 1.365-.465a3.16 3.16 0 0 0 1.105-1.001c.525-.8.806-1.728.812-2.676 0 0 7.829-2.222 9.945 0 .381.401.701.853.95 1.343a10.937 10.937 0 0 1 .994 4.881s.404 2.414 1.045 5.165c.64 2.751-11.564 1.172-11.564 1.172zM365.904 426.958l-7.119-2.462c-1.964-1.542-1.34-3.292-.347-4.577a3.81 3.81 0 0 1 2.82-1.375 2.56 2.56 0 0 0 .81-.21c.191-.073.375-.161.552-.262 1.987-1.07 1.937-3.666 1.937-3.666s7.814-2.222 9.933 0c.287.298.538.629.745.985 1.346 2.248 1.197 5.246 1.197 5.246s.398 2.414 1.043 5.165c.646 2.752-11.571 1.156-11.571 1.156z"/>
        <path fill="#000" d="M340.528 417.504c.39.44.717.936.972 1.472l-12 1.442a5.68 5.68 0 0 0 .83-2.931s8.01-2.416 10.198.017zM375.5 415.332v2.089c-1.79 2.84-10.476 2.22-13 .794.188-.073.37-.158.544-.256 1.958-1.045 1.91-3.577 1.91-3.577s7.701-2.168 9.79 0c.29.287.544.606.756.95z" opacity=".1"/>
        <path fill="#0087CC" d="M377.072 405.625a20.147 20.147 0 0 0-1.374 2.955v7.785c-1.955 3.277-12.143 2.185-13.517.393-1.374-1.792-2.84-6.403-1.271-7.19 1.57-.786 2.84-4.73 2.84-4.73s-1.667.393-4.312-2.759c-2.645-3.152-1.863-10.15-1.368-11.827.494-1.677 0-7.293 0-7.293s.097-3.938-.69-5.222c-.788-1.284-2.45-8.571-2.45-8.571s0-2.464-1.368-3.748c-1.369-1.284-2.254-6.304-2.254-6.304a6.504 6.504 0 0 1-.994-4.234c.299-2.464-1.662-5.124-1.662-5.124l-3.329-10.642-3.139-7.98-1.749 4.626s-.494 10.838-.098 13.111c.397 2.273.978 8.276.978 8.276s-1.96 3.944-1.086 7.293c.874 3.349.586 10.543.586 10.543s.88 14.881.098 16.061c-.782 1.18-.684 4.141-.684 4.141s4.013 8.67 2.715 9.833c-1.298 1.164-.885 4.436-.885 4.436s2.716 0 1.57 1.18c-1.146 1.18-2.004 7.408-2.004 7.408l-11.845 1.376s-1.087-1.376-2.656-5.025c-1.57-3.65.293-3.278 1.874-3.644 1.58-.366.575-1.382-1.282-2.562-1.858-1.18-.788-3.824-.788-3.824s2.84-4.83 1.863-5.228c-.977-.399-1.086-7.19-1.086-7.19s-1.96-8.084-1.472-10.248c.489-2.163-1.57-7.39-1.57-7.39l-.684-6.212a17.167 17.167 0 0 1-2.172-11.724v-9.576s-2.715-18.524-3.134-27.888c-.25-6.009-.179-14.176-.097-19.284.048-2.862.097-4.758.097-4.758l42.335-4.447c.064 2.126.32 4.242.765 6.32.43 2.339 1.087 5.365 2.173 9.151 3.036 10.839 1.173 18.918 1.173 18.918l-.391 13.7s3.726 9.162 2.938 12.32a26.366 26.366 0 0 0-.782 5.714s8.326 20.005 7.446 25.817c-.88 5.813 2.715 14.98 2.715 14.98s1.005 6.511.027 8.287z"/>
        <path fill="#000" d="M352.5 354.186l13-1.768s-7.363 7.67-13 1.768z" opacity=".05"/>
        <path fill="#000" d="M363.756 340.418s.422 4.359-2.256 6c.005 0 4.8-.753 2.256-6zM362.5 325.418s-10.627 8.66-14.47 7.96c-3.843-.7 14.47-7.96 14.47-7.96zM336.5 358.418s-7.763 1.888-7.995 5.228c-.232 3.34 7.995-5.228 7.995-5.228z" opacity=".1"/>
        <path fill="#000" d="M338.522 399.418s-11.764 2.08-8.425 3.468c3.339 1.388 8.845 2.532 8.845 2.532s3.77.187-.42-6z" opacity=".05"/>
        <g fill="#000" opacity=".05">
            <path d="M327.33 405.38a2.315 2.315 0 0 1-1.06-1.688l-.12.208s-1.09 2.658.786 3.82c.219.137.42.274.606.405.349-.066.72-.115 1.09-.202 1.572-.382.568-1.365-1.303-2.544zM342.285 404.588c.322-.295.311-1.054.115-2.026a5.495 5.495 0 0 0-.66 2.855c.122-.311.308-.594.545-.83zM340.502 355.603a13.25 13.25 0 0 0-.786 3.619c.223-.856.524-1.69.9-2.49 0 0-.043-.441-.114-1.13zM367.104 350.434c.08-.358.117-.725.109-1.092-.148.731-.251 1.414-.322 2.014.038-.29.109-.6.213-.922zM340.218 390.608a6.282 6.282 0 0 0 .295-2.183 7.423 7.423 0 0 0-.546 2.762c.06-.202.145-.396.251-.579zM342.656 409.173a38.78 38.78 0 0 0-1.352 6.048l-11.897 1.38s-1.09-1.38-2.667-5.021a11.792 11.792 0 0 1-.333-.868c-.714.328-.992 1.092-.06 3.231 1.577 3.641 2.662 5.022 2.662 5.022l11.913-1.38s.883-6.202 2.062-7.386c.572-.579.201-.873-.328-1.026zM326.936 391.493s.099 6.795 1.091 7.188c.497-1.124.83-2.183.388-2.369-.988-.393-1.091-7.188-1.091-7.188s-1.964-8.074-1.473-10.24c.49-2.168-1.576-7.386-1.576-7.386l-.688-6.2a17.057 17.057 0 0 1-2.182-11.72v-9.553s-2.727-18.51-3.147-27.838c-.25-6.004-.18-14.192-.098-19.269 0-.922.027-1.74.044-2.429l-.339.033s-.054 1.894-.098 4.76c-.087 5.098-.158 13.275.098 19.263.393 9.356 3.148 27.866 3.148 27.866v9.552a17.057 17.057 0 0 0 2.182 11.72l.692 6.162s2.068 5.219 1.577 7.386c-.491 2.167 1.472 10.262 1.472 10.262zM361.965 413.943a11.468 11.468 0 0 1-1.881-4.677c-1.217 1.091.18 5.354 1.489 7.041 1.374 1.769 11.607 2.855 13.576-.393v-1.878c-2.662 2.642-11.864 1.583-13.184-.093zM376.922 402.819a19.111 19.111 0 0 0-1.38 2.953v1.37c.223-.507.545-1.179.987-1.976a5.894 5.894 0 0 0 .431-2.434.333.333 0 0 0-.038.087zM362.57 404.37c.376-.759.7-1.541.972-2.342 0 0-1.675.393-4.331-2.73-1.936-2.292-2.046-6.62-1.767-9.448-.497 1.67-1.282 8.662 1.374 11.812 1.74 2.036 3.05 2.576 3.753 2.707zM357.438 382.535c.173 1.94.24 3.888.197 5.835.05-.309.117-.615.201-.917.497-1.67 0-7.281 0-7.281s.099-3.941-.687-5.219c-.785-1.277-2.46-8.57-2.46-8.57s0-2.461-1.374-3.739c-1.375-1.277-2.264-6.304-2.264-6.304a6.45 6.45 0 0 1-.987-4.23c.294-2.462-1.67-5.12-1.67-5.12l-3.349-10.64-3.147-7.974-1.773 4.629s0 .584-.06 1.495l1.44-3.76 3.148 7.974 3.36 10.639s1.969 2.658 1.674 5.12a6.45 6.45 0 0 0 .988 4.23s.883 5.022 2.258 6.305c1.374 1.283 1.38 3.739 1.38 3.739s1.674 7.287 2.46 8.57c.785 1.283.665 5.218.665 5.218z"/>
        </g>
        <path fill="#FFCDD3" d="M366.323 201.653l-.754 3.576.044 1.592.033 1.179-4.173.418-.465-.847c-.865-1.533-2.655-4.652-3.237-5.13-.77-.635-2.145-10.585-.493-9.998a4.337 4.337 0 0 1 2.322 2.065s8.197.946 6.723 7.145z"/>
        <path fill="#000" d="M365.5 208.015l-4.498.403-.502-.817c1.25-1.245 3.326-1.545 4.964-.718l.036 1.132z" opacity=".1"/>
        <path fill="#DCE6F2" d="M366.5 210.025l-5.568 1.393-.112-.896-.32-2.424s2.204-3.175 5.389-.794l.275 1.212.336 1.509z"/>
        <path fill="#FFCDD3" d="M278.5 201.377l-5.738 3.041-.542-1.07c-.541-1.13-1.36-2.833-1.582-3.443-.341-.937-2.736-2.141-2.736-2.141-6.009-5.676 1.149-10.553 1.149-10.553 3.792-7.533 8.013 2.56 8.013 2.56s.585 5.316.174 5.674c-.412.359-.418 1.81-.418 1.81a21.842 21.842 0 0 1 1.387 3.25c.2.54.293.872.293.872z"/>
        <path fill="#000" d="M278.5 202.33l-5.482 3.088-.518-1.087c.771-.674 3.52-3.013 4.421-2.91.431.056.866.07 1.3.039.191.533.279.87.279.87z" opacity=".1"/>
        <path fill="#DCE6F2" d="M279.5 203.491l-6.767 2.927-.136-1.276-.097-.883s3.924-2.947 5.084-2.838a6.968 6.968 0 0 0 1.768 0l.074 1.068.074 1.002z"/>
        <path fill="#FFCDD3" d="M350.5 225.428s-28.698 3.204-23.331 1.482c3.73-1.203 5.212-3.549 5.527-6.157.249-2.187-.315-4.538-1.072-6.561a28.113 28.113 0 0 0-2.565-5.13s21.938-11.935 17.55-1.093a17.233 17.233 0 0 0-1.244 5.14 14.222 14.222 0 0 0 .553 5.2 15.439 15.439 0 0 0 4.582 7.119z"/>
        <path fill="#000" d="M346.924 207.806a16.134 16.134 0 0 0-1.235 4.94c-2.052 1.651-4.302 1.541-7.189 1.541-2.195 0-4.676.526-6.454-.526a26.694 26.694 0 0 0-2.546-4.93s21.781-11.463 17.424-1.025z" opacity=".1"/>
        <circle cx="338" cy="203.918" r="11.5" fill="#FFCDD3"/>
        <path fill="#000" d="M350.5 225.491s-28.698 3.103-23.331 1.435c3.73-1.165 5.212-3.436 5.527-5.962 1.426-1.482 4.295-2.551 6.141-3.118a8.933 8.933 0 0 1 5.201-.08c.67.19 1.306.472 1.89.837a14.906 14.906 0 0 0 4.572 6.888zM366.5 210.062l-5.882 1.356-.118-.872a5.207 5.207 0 0 1 5.645-1.923l.355 1.439zM279.5 203.439l-6.862 2.98-.138-1.3a54.138 54.138 0 0 1 6.92-2.7l.08 1.02zM361.5 296.932c-10.869 1.787-26.345 4.108-28.8 3.333-2.033-.647-8.538-.562-14.2-.377.049-2.945.097-4.895.097-4.895l42.14-4.575c.064 2.191.32 4.371.763 6.514z" opacity=".1"/>
        <path fill="#FFD100" d="M372.5 294.247s-35.95 6.175-39.812 4.997c-3.861-1.179-23.667.098-23.667.098-8.912 5.974-5.192-2.84-5.192-2.84s-.782-4.606.294-8.327a50.713 50.713 0 0 0 1.499-8.325s-.196-5.882.88-7.25c1.075-1.37 2.35-11.173 2.35-11.173s.984-6.658.886-8.146c.004-1.865.102-3.728.293-5.583l1.271-6.86c-7.348-.977-29.684-14.696-29.684-14.696-1.086-4.6-9.4-15.38-9.4-15.38a11.189 11.189 0 0 0-.69-2.646c-.587-1.564 8.233-4.698 8.233-4.698s6.56 8.033 7.934 10.189c1.374 2.156 6.072 6.17 6.072 6.17a4.779 4.779 0 0 1 2.172.282l.114.033a17.562 17.562 0 0 1 4.388 2.52 8.504 8.504 0 0 1 5.973 2.254s4.02-.587 4.703.097c.685.685 4.117 0 4.117 0s3.427-7.25 5.68-5.143c2.254 2.107 11.812 2.01 11.812 2.01 1.276-1.695 4.377-2.911 6.316-3.536a8.46 8.46 0 0 1 5.11-.081 6.587 6.587 0 0 1 2.015.972l5.8 5.68s1.667-2.172 1.471-2.644c-.195-.473 1.96-.88 1.96-.88s2.841-.885 3.916-1.179c1.076-.293 2.064.875 2.173.978-.033-.125-.772-2.498-.484-4.307.288-1.808-1.178-3.53-1.178-3.53 3.432-8.424 11.17-1.369 11.17-1.369s.88 4.606.098 6.365c-.782 1.76.782 5.491.587 6.469-.196.977.391 2.645.391 4.508 0 1.862-.978 5.387-1.57 6.951-.591 1.564-5.289 5.095-5.289 5.095s-.293 5.588-2.351 8.82c-2.059 3.231-.842 14.305-.842 14.305s1.96 8.64 4.426 11.405c2.465 2.765 6.055 18.395 6.055 18.395z"/>
        <path fill="#000" d="M320.245 229.418s-1.052-3.227-1.994-3.52a22.252 22.252 0 0 1-2.751-1.275l.61-1.205s3.562 1.01 4.135 2.084c.574 1.074 0 3.916 0 3.916zM300.5 222.733c-.197.884-9 1.685-9 1.685l4.45-4 .11.035a18.34 18.34 0 0 1 4.44 2.28z" opacity=".1"/>
        <circle cx="274.5" cy="208.418" r="1" fill="#575988"/>
        <circle cx="275.5" cy="210.418" r="1" fill="#575988"/>
        <circle cx="276.5" cy="211.418" r="1" fill="#575988"/>
        <circle cx="277.5" cy="213.418" r="1" fill="#575988"/>
        <circle cx="371" cy="212.918" r="1" fill="#575988"/>
        <circle cx="371" cy="214.918" r="1" fill="#575988"/>
        <circle cx="371" cy="215.918" r="1" fill="#575988"/>
        <path fill="#000" d="M320.5 256.419c-.092-.117 21.914 28.315 39 11.887 0 0-26.996 3.743-39-11.887zM307.5 271.418s13.582.34 15 3.945v3.754a2.788 2.788 0 0 1-2.523 0c-1.368-.685-9.585-4.532-12.477-2.683v-5.016z" opacity=".1"/>
        <path fill="#F3C703" d="M307.5 270.418s12.676.34 14 3.952v3.745a2.446 2.446 0 0 1-2.359 0c-1.274-.68-8.94-4.535-11.641-2.702v-4.995z"/>
        <path fill="#000" d="M314.5 241.418a44.312 44.312 0 0 0 5.064 9.036 34.72 34.72 0 0 0 7.936 7.964s-12.785-15.13-13-17zM310.5 226.418s2.237 9.7 8 13l-8-13zM306.708 227.421c-.058-.177-2.08 7.66 7.792 11.997.023 0-4.193-1.365-7.792-11.997zM364.503 221.424c-.15 0 4.687 2.729 5.997 3.994 0 0-3.143-4.171-5.997-3.994z" opacity=".1"/>
        <path fill="#2D293D" d="M335.082 214.475c.093.615.416 1.173.904 1.56.336.16.703.242 1.075.241 3.523.216 7.185.372 10.438-.984a3.947 3.947 0 0 0 1.614-1.049c.58-.71.688-1.673.925-2.555.451-1.726 1.425-3.265 2.15-4.905a16.457 16.457 0 0 0 1.14-8.805 5.837 5.837 0 0 0-.876-2.577c-.935-1.334-2.635-1.872-3.872-2.931-1.237-1.06-2.027-2.69-3.468-3.486-1.302-.72-2.888-.635-4.356-.387a22.981 22.981 0 0 0-8.185 3.055c-.834.511-1.753 1.103-2.689.925-.844-.161-1.457-.871-2-1.533a10.76 10.76 0 0 0-.86 5.03c.042.25.042.507 0 .758a2.34 2.34 0 0 1-.539.801c-.87 1.006-1.414 2.604-.537 3.62.37.447.946.689 1.312 1.14.65.813.43 1.975.414 3.018-.037.36.054.723.258 1.022a1.49 1.49 0 0 0 1.425.339 3.952 3.952 0 0 1 1.517-.145 2.495 2.495 0 0 1 1.317 1.016c1.581 2.066 2.21 4.341 2.893 6.832z"/>
        <g fill="#000" opacity=".1">
            <path d="M349.168 213.158a3.947 3.947 0 0 1-1.63 1.083c-3.26 1.365-6.99 1.208-10.549.986a2.376 2.376 0 0 1-1.087-.244 2.457 2.457 0 0 1-.913-1.57c-.69-2.503-1.326-4.795-2.973-6.875a2.52 2.52 0 0 0-1.331-1.023 3.904 3.904 0 0 0-1.533.146 1.52 1.52 0 0 1-1.424-.341 1.556 1.556 0 0 1-.26-1.035c0-1.045.239-2.22-.42-3.033-.369-.46-.945-.699-1.325-1.149a2.29 2.29 0 0 1-.228-2.334c-.62.986-.892 2.253-.163 3.114.375.45.956.694 1.326 1.149.657.818.434 1.988.418 3.038-.037.363.055.728.261 1.03a1.51 1.51 0 0 0 1.44.34 4.007 4.007 0 0 1 1.533-.145 2.52 2.52 0 0 1 1.331 1.023c1.63 2.08 2.283 4.372 2.973 6.88.004.513.224 1.002.606 1.347s.892.514 1.405.467c3.56.217 7.26.374 10.549-.991a3.99 3.99 0 0 0 1.63-1.056 3.1 3.1 0 0 0 .506-.943 1.66 1.66 0 0 1-.142.136zM326.467 196.214c.16-.167.283-.367.36-.585a2.251 2.251 0 0 0 0-.764c-.101-1.424.083-2.855.543-4.208l-.066-.076a10.726 10.726 0 0 0-.87 5.064c.028.189.039.379.033.57z"/>
        </g>
        <path fill="#000" d="M332.5 221.668s14.68 1.844 16-.25M360.5 215.418s8.195 0 10 3" opacity=".1"/>
        <path fill="#6C63FF" d="M536.257 208.418s.998 1.28-.462 3.218-2.684 3.576-2.18 4.782c0 0 2.207-3.597 4-3.65 1.793-.052.618-2.211-1.358-4.35z"/>
        <path fill="#000" d="M536.229 208.418c.086.125.156.26.206.4 1.772 2.023 2.718 3.903 1.011 3.95-1.587.048-3.49 2.797-3.946 3.492 0 .052.033.105.054.158.022.052 2.234-3.597 4.05-3.65 1.816-.052.625-2.212-1.375-4.35z" opacity=".1"/>
        <path fill="#FFD037" d="M538.215 209.678c0 .408-.09.74-.21.74s-.22-.332-.22-.74.12-.213.24-.213.19-.19.19.213z"/>
        <path fill="#FFD037" d="M538.26 209.924c-.39.352-.732.566-.758.472-.026-.094.26-.446.654-.798.394-.352.233-.094.264 0 .032.094.234-.026-.16.326z"/>
        <path fill="#6C63FF" d="M530.746 208.418s-1.002 1.28.461 3.218c1.464 1.938 2.681 3.576 2.177 4.782 0 0-2.203-3.597-4-3.65-1.796-.052-.61-2.211 1.362-4.35z"/>
        <path fill="#000" d="M530.775 208.418c-.09.123-.161.258-.212.4-1.77 2.023-2.715 3.903-1.01 3.95 1.585.048 3.491 2.797 3.947 3.492 0 .052-.033.105-.054.158-.022.052-2.232-3.597-4.05-3.65-1.819-.052-.62-2.212 1.379-4.35z" opacity=".1"/>
        <path fill="#FFD037" d="M528.774 209.677c0 .409.1.741.22.741.2-.234.273-.49.21-.741 0-.404-.12-.214-.24-.214s-.19-.19-.19.214zM527.738 209.924c.393.352.729.566.76.472.03-.094-.264-.446-.652-.798-.388-.352-.238-.094-.269 0-.03.094-.227-.026.16.326z"/>
        <path fill="#A8A8A8" d="M528.5 215.843s2.952-.08 3.841-.647c.89-.567 4.533-1.24 4.765-.334.232.905 4.436 4.514 1.133 4.554-3.303.04-7.745-.46-8.634-.946-.89-.486-1.105-2.627-1.105-2.627z"/>
        <path fill="#000" d="M538.291 220.065c-3.335 0-7.754-.524-8.64-1.064-.68-.415-.947-1.9-1.038-2.583h-.113s.187 2.395 1.078 2.936c.89.54 5.304 1.092 8.645 1.063.964 0 1.293-.352 1.276-.859-.124.308-.487.5-1.208.507z" opacity=".2"/>
    </g>
</svg>
